<svg width="475" height="629" viewBox="0 0 475 629" fill="none" xmlns="http://www.w3.org/2000/svg">
<path d="M30.2351 626.91H443.993L472.098 3.07731C463.77 6.57425 454.516 9.90979 444.563 12.9763C389.839 29.8585 316.199 39.1442 237.114 39.1442C158.029 39.1442 84.3893 29.8585 29.7509 13.0086C19.7335 9.92055 10.4801 6.58501 2.13045 3.07731L30.2243 626.91H30.2351ZM445.898 628.911H28.3198L0 0L1.46334 0.624069C10.125 4.33621 19.8088 7.84391 30.2459 11.0719C84.7981 27.9002 158.234 37.1429 237.114 37.1429C315.994 37.1429 389.43 27.8894 443.886 11.0934C454.441 7.83315 464.125 4.31469 472.765 0.624069L474.228 0L445.898 628.911Z" fill="#FFF9F4"/>
</svg>
