<svg width="402" height="248" viewBox="0 0 402 248" fill="none" xmlns="http://www.w3.org/2000/svg">
<g clip-path="url(#clip0_383_78)">
<path d="M35.7312 0H3.3094L0 8.15506V8.17803H9.31917C9.34216 8.29864 9.36514 8.39627 9.36514 8.51687V91.2678C9.36514 91.3884 9.34216 91.486 9.34216 91.6066H3.11405L0 99.2793V99.7617H26.7969C64.0736 99.7617 79.3796 75.532 79.3796 44.6461C79.3796 18.2915 65.3549 0 35.7312 0ZM32.2781 91.0495C31.5082 91.0955 30.7326 91.1242 29.911 91.1242C27.2336 91.1242 24.2632 91.1242 24.2632 88.9993V9.65399C24.2632 9.65399 27.6415 8.66619 33.4617 8.66619C34.1109 8.66619 34.7142 8.71213 35.3462 8.74085C53.9616 9.72864 63.6427 24.8615 63.6427 47.0639C63.6427 69.2663 55.8174 89.7287 32.2839 91.0553L32.2781 91.0495ZM379.208 60.089C368.148 54.995 364.626 50.458 364.626 45.3467C364.626 41.0969 367.74 34.4408 378.219 34.4408C383.747 34.4408 390.411 36.8528 390.411 42.6475C390.365 44.0201 389.664 45.542 388.82 46.8686L397.294 50.2972C397.582 50.0101 397.875 49.7172 398.139 49.43C400.506 47.0409 401.954 43.8076 402 40.5226C402.023 38.8112 401.638 37.094 400.816 35.4803C399.61 33.1371 397.605 31.3051 395.358 29.9555C390.291 26.8198 384.086 25.9526 378.219 25.9526C360.931 25.9526 350.722 35.1701 350.722 45.9096C350.722 56.649 357.386 63.7933 371.147 70.4551C382.81 76.1235 387.32 79.6727 387.297 84.9332C387.251 93.6913 375.301 94.995 369.021 92.3877C367.912 91.9282 366.849 91.2793 366.102 90.3374C364.436 88.2125 364.631 84.8816 364.677 82.28L352.991 77.5765V82.9347C352.991 88.2929 354.611 93.3353 358.955 96.8098C363.057 100.118 368.395 101.513 373.56 101.829C374.307 101.875 375.059 101.904 375.829 101.904C389.153 101.904 399.897 94.3977 399.897 81.9239C399.897 70.1737 389.009 64.7925 379.208 60.1063V60.089ZM349.676 13.7545C352.066 13.9497 353.635 15.3453 353.635 17.2749C353.635 19.2046 352.353 21.2548 349.096 23.2362L351.773 26.9289C354.358 25.8665 356.818 24.4652 358.92 22.6332C360.707 21.0194 362.207 19.061 363.12 16.8385C363.649 15.5118 363.942 14.1852 363.942 12.7839V5.27782C363.942 3.97416 362.615 3.08399 361.408 3.5664L348.372 8.84996C348.372 10.659 348.372 13.7258 348.395 13.7487C348.831 13.7028 349.262 13.7028 349.676 13.7487V13.7545ZM211.365 88.5628L228.337 32.1665H231.934L234.06 26.9289H212.91L210.785 32.1665H216.674C215.346 37.6224 215.174 38.1278 214.887 39.2592L206.677 72.1264L195.473 26.9289H179.443L177.317 32.1665H179.903L182.293 40.1034L173.916 72.2699L165.418 38.2426C165.033 36.7207 164.114 33.0567 163.896 32.1838H166.142L168.481 32.2068V32.1838H170.796V26.9232H144.821L142.695 32.1608H147.038L148.561 37.1342L164.131 88.5571C164.562 89.9813 165.918 94.5183 165.918 94.5183H161.913L159.788 99.7559H179.949L182.074 94.5183H176.645C176.645 94.5183 177.926 90.2455 178.455 88.5571L187.676 57.9584L197.018 88.5571C197.599 90.2455 197.961 91.5492 198.248 92.491C198.805 94.2771 198.874 94.5183 198.874 94.5183H195.209L193.083 99.7559H213.221L215.346 94.5183H209.578L210.204 92.4164C210.543 91.285 210.928 89.9813 211.365 88.5571V88.5628ZM126.918 91.1472C123.729 92.7897 119.966 93.2951 116.467 92.5714C108.67 90.9576 103.746 83.5951 101.017 76.6691L139.719 57.2692C141.695 56.2584 142.833 54.7136 142.833 51.0208C142.833 47.3281 140.851 25.9469 114.611 25.9469C88.3713 25.9469 83.1544 48.6088 83.1544 61.3697C83.1544 85.4559 96.0473 101.33 119.293 101.33C124.39 101.33 129.94 100.508 134.358 97.8091C138.219 95.42 141.287 91.7789 142.999 87.6037C144.47 84.0316 145.412 80.4594 145.412 76.5772C142.178 77.8808 136.191 80.5571 132.956 81.8837C132.979 86.0359 130.543 89.2922 126.918 91.1529V91.1472ZM97.7537 59.532C97.7537 46.0646 101.425 34.1479 113.761 34.1479C114.53 34.1479 115.26 34.2455 115.984 34.3661C122.815 35.5262 127.791 42.0617 127.791 51.1644C127.791 52.5887 127.647 53.8693 126.102 54.7136L103.022 66.3661L98.604 68.5887C98.0237 65.6195 97.7594 61.9268 97.7594 59.5377L97.7537 59.532ZM316.22 35.0151C316.295 34.8485 315.812 33.9526 315.737 33.7861C315.375 33.0165 314.433 31.7358 313.054 30.5757C311.652 29.4386 309.865 28.4279 307.791 28.1637C307.791 28.1637 307.355 28.7667 306.682 29.8521C306.033 30.9146 305.183 32.4824 304.338 34.3661C302.649 34.2915 298.639 34.2225 296.95 34.1709L294.778 39.5521H295.525C303.034 39.5521 303.298 39.8392 303.298 45.6339V94.5241C302.212 94.5241 300.839 94.5011 298.834 94.5011L296.708 99.7617H322.006L324.131 94.5241H317.61V56.1034C317.61 45.341 322.873 38.1278 329.802 38.1278C333.64 38.1278 335.329 39.9598 335.329 42.5212C335.329 45.6339 332.215 51.8593 332.215 51.8593L339.581 53.72L349.647 30.168C346.608 27.463 341.586 25.5104 335.766 25.5104C328.958 25.5104 319.88 28.5025 316.208 35.0208L316.22 35.0151ZM286.476 82.3374V44.4968C286.476 36.5599 287.056 33.7344 289.032 32.8902L290.457 32.3101L286.906 26.7854L285.482 27.3654C282.511 28.4968 280.098 30.3345 278.265 33.1831C274.134 28.9103 267.763 25.9411 260.546 25.9411C239.42 25.9411 228.366 44.2096 228.366 63.7818C228.366 92.6691 244.539 100.749 257.702 100.749C264.798 100.749 270.618 97.9239 273.876 94.0876C275.278 97.9239 278.828 100.457 283.074 99.9053L295.22 86.995C290.342 87.0696 286.481 87.9598 286.481 82.3374H286.476ZM272.158 73.8205C272.158 85.163 266.338 90.8313 259.265 90.8313C243.522 90.8313 242.971 71.4314 242.971 61.921C242.971 50.5786 247.918 34.8715 260.11 34.8715C267.498 34.8715 272.158 38.1278 272.158 47.6152V73.8205Z" fill="#231F20"/>
<path d="M141.994 195.928H130.417L129.233 198.84V198.851H132.56C132.566 198.892 132.577 198.926 132.577 198.972V228.514C132.577 228.554 132.571 228.589 132.571 228.635H130.348L129.233 231.374V231.546H138.799C152.106 231.546 157.576 222.897 157.576 211.865C157.576 202.458 152.566 195.928 141.994 195.928ZM140.759 228.439C140.483 228.457 140.207 228.468 139.914 228.468C138.96 228.468 137.897 228.468 137.897 227.71V199.38C137.897 199.38 139.104 199.029 141.184 199.029C141.414 199.029 141.632 199.047 141.856 199.058C148.504 199.408 151.957 204.813 151.957 212.738C151.957 220.663 149.164 227.968 140.759 228.445V228.439ZM264.625 217.384C260.678 215.564 259.42 213.944 259.42 212.118C259.42 210.602 260.535 208.224 264.275 208.224C266.251 208.224 268.63 209.085 268.63 211.153C268.613 211.647 268.366 212.187 268.061 212.663L271.089 213.887C271.193 213.783 271.296 213.68 271.394 213.576C272.238 212.721 272.755 211.566 272.773 210.395C272.778 209.78 272.646 209.172 272.347 208.592C271.916 207.753 271.198 207.098 270.4 206.616C268.59 205.496 266.372 205.186 264.281 205.186C258.11 205.186 254.462 208.477 254.462 212.313C254.462 216.149 256.84 218.699 261.753 221.077C265.918 223.104 267.527 224.368 267.521 226.246C267.504 229.375 263.235 229.841 260.994 228.91C260.598 228.749 260.219 228.514 259.949 228.175C259.351 227.417 259.42 226.228 259.443 225.298L255.272 223.615V225.528C255.272 227.44 255.852 229.243 257.403 230.484C258.869 231.667 260.776 232.167 262.62 232.276C262.89 232.293 263.155 232.299 263.43 232.299C268.188 232.299 272.026 229.617 272.026 225.166C272.026 220.968 268.136 219.05 264.637 217.378L264.625 217.384ZM254.083 200.844C254.939 200.913 255.496 201.413 255.496 202.102C255.496 202.791 255.042 203.526 253.876 204.233L254.835 205.553C255.76 205.174 256.639 204.675 257.386 204.02C258.024 203.44 258.558 202.745 258.886 201.953C259.075 201.476 259.179 201.005 259.179 200.505V197.823C259.179 197.358 258.708 197.037 258.271 197.209L253.617 199.098C253.617 199.747 253.617 200.838 253.623 200.85C253.778 200.833 253.933 200.833 254.077 200.85L254.083 200.844ZM204.7 227.549L210.762 207.414H212.049L212.807 205.542H205.257L204.499 207.414H206.602C206.131 209.361 206.068 209.545 205.964 209.947L203.034 221.68L199.035 205.542H193.313L192.554 207.414H193.479L194.335 210.251L191.342 221.737L188.308 209.591C188.17 209.045 187.843 207.736 187.768 207.426H188.573L189.406 207.437V207.426H190.233V205.548H180.96L180.201 207.42H181.753L182.293 209.195L187.854 227.555C188.009 228.066 188.492 229.686 188.492 229.686H187.061L186.303 231.558H193.502L194.261 229.686H192.319C192.319 229.686 192.778 228.158 192.968 227.555L196.26 216.632L199.598 227.555C199.805 228.158 199.931 228.623 200.035 228.962C200.23 229.599 200.259 229.686 200.259 229.686H198.949L198.19 231.558H205.378L206.136 229.686H204.074L204.298 228.933C204.419 228.525 204.556 228.06 204.712 227.555L204.7 227.549ZM174.548 228.474C173.41 229.06 172.066 229.243 170.813 228.985C168.027 228.405 166.269 225.78 165.298 223.305L179.115 216.379C179.822 216.017 180.23 215.466 180.23 214.145C180.23 212.824 179.523 205.192 170.152 205.192C160.782 205.192 158.92 213.284 158.92 217.838C158.92 226.435 163.522 232.103 171.824 232.103C173.646 232.103 175.628 231.81 177.202 230.846C178.581 229.99 179.679 228.692 180.288 227.199C180.81 225.924 181.149 224.649 181.149 223.259C179.995 223.724 177.857 224.683 176.702 225.154C176.708 226.636 175.841 227.802 174.548 228.462V228.474ZM164.137 217.189C164.137 212.382 165.447 208.126 169.854 208.126C170.13 208.126 170.388 208.161 170.647 208.201C173.088 208.615 174.864 210.952 174.864 214.197C174.864 214.708 174.812 215.162 174.261 215.466L166.021 219.63L164.441 220.422C164.235 219.36 164.143 218.045 164.143 217.189H164.137ZM242.138 208.431C242.166 208.373 241.994 208.052 241.965 207.989C241.833 207.713 241.5 207.259 241.006 206.84C240.506 206.432 239.868 206.07 239.127 205.978C239.127 205.978 238.972 206.197 238.731 206.581C238.495 206.961 238.196 207.523 237.892 208.195C237.288 208.172 235.858 208.144 235.255 208.126L234.479 210.05H234.749C237.432 210.05 237.524 210.154 237.524 212.221V229.68C237.139 229.68 236.645 229.668 235.933 229.668L235.174 231.546H244.206L244.964 229.674H242.638V215.96C242.638 212.118 244.516 209.539 246.993 209.539C248.366 209.539 248.969 210.194 248.969 211.107C248.969 212.215 247.854 214.444 247.854 214.444L250.486 215.11L254.083 206.702C252.997 205.737 251.204 205.037 249.124 205.037C246.694 205.037 243.453 206.105 242.143 208.431H242.138ZM231.514 225.327V211.819C231.514 208.982 231.721 207.977 232.428 207.673L232.933 207.466L231.664 205.49L231.158 205.697C230.095 206.105 229.233 206.76 228.578 207.776C227.102 206.248 224.827 205.192 222.253 205.192C214.709 205.192 210.762 211.716 210.762 218.699C210.762 229.014 216.536 231.897 221.236 231.897C223.769 231.897 225.849 230.886 227.01 229.519C227.51 230.892 228.779 231.793 230.296 231.598L234.634 226.986C232.893 227.015 231.514 227.331 231.514 225.321V225.327ZM226.407 222.289C226.407 226.337 224.327 228.365 221.804 228.365C216.185 228.365 215.984 221.439 215.984 218.045C215.984 213.996 217.754 208.385 222.103 208.385C224.74 208.385 226.407 209.551 226.407 212.933V222.289Z" fill="#231F20"/>
<path d="M243.999 246.421H243.586V244.198H242.925V243.819H244.66V244.198H243.999V246.421Z" fill="#231F20"/>
<path d="M247.866 243.819L248.205 246.426H247.791L247.573 244.681L246.791 246.426H246.585L245.798 244.663L245.579 246.426H245.171L245.51 243.819H245.832L246.694 245.749L247.556 243.819H247.872H247.866Z" fill="#231F20"/>
<path d="M175.645 238.179C176.22 238.179 176.72 238.288 177.15 238.501C177.576 238.713 177.909 239.006 178.139 239.38C178.374 239.753 178.489 240.178 178.489 240.649C178.489 241.12 178.374 241.545 178.139 241.918C177.903 242.291 177.576 242.59 177.15 242.802C176.725 243.015 176.22 243.118 175.645 243.118H174.364V246.294H173.083V238.174H175.645V238.179ZM175.634 241.924C176.116 241.924 176.49 241.803 176.766 241.568C177.036 241.332 177.173 241.022 177.173 240.643C177.173 240.264 177.036 239.954 176.766 239.713C176.496 239.471 176.116 239.351 175.634 239.351H174.364V241.912H175.634V241.924Z" fill="#231F20"/>
<path d="M182.04 242.699V245.1H185.487V246.294H180.759V238.174H185.372V239.357H182.04V241.505H185.257V242.699H182.04Z" fill="#231F20"/>
<path d="M192.841 246.294L190.21 243.118H189.371V246.294H188.09V238.174H190.652C191.227 238.174 191.727 238.283 192.158 238.495C192.583 238.708 192.916 239.001 193.146 239.374C193.382 239.747 193.496 240.172 193.496 240.643C193.496 241.206 193.336 241.694 193.014 242.108C192.692 242.521 192.25 242.808 191.681 242.969L194.444 246.288H192.847L192.841 246.294ZM189.365 239.362V241.924H190.635C191.118 241.924 191.491 241.803 191.767 241.568C192.037 241.332 192.175 241.022 192.175 240.643C192.175 240.264 192.037 239.954 191.767 239.713C191.497 239.471 191.118 239.351 190.635 239.351H189.365V239.362Z" fill="#231F20"/>
<path d="M197.65 246.294H196.369V238.174H197.65V246.294Z" fill="#231F20"/>
<path d="M201.937 242.699V245.1H205.384V246.294H200.655V238.174H205.269V239.357H201.937V241.505H205.154V242.699H201.937Z" fill="#231F20"/>
<path d="M213.962 244.06V238.179H215.197V246.3H214.358L209.233 240.431V246.3H207.987V238.179H208.837L213.962 244.06Z" fill="#231F20"/>
<path d="M219.788 245.875C219.144 245.507 218.633 245.008 218.248 244.37C217.869 243.733 217.679 243.021 217.679 242.24C217.679 241.459 217.869 240.746 218.248 240.103C218.627 239.46 219.138 238.96 219.788 238.599C220.431 238.237 221.138 238.053 221.896 238.053C222.81 238.053 223.614 238.306 224.304 238.805C224.993 239.311 225.487 239.988 225.792 240.844H224.453C224.212 240.35 223.867 239.96 223.425 239.667C222.982 239.374 222.471 239.23 221.902 239.23C221.368 239.23 220.879 239.362 220.431 239.632C219.989 239.896 219.638 240.258 219.38 240.718C219.121 241.177 218.995 241.683 218.995 242.24C218.995 242.797 219.121 243.302 219.38 243.756C219.638 244.209 219.983 244.571 220.431 244.835C220.874 245.1 221.362 245.232 221.902 245.232C222.482 245.232 222.999 245.088 223.448 244.795C223.896 244.502 224.24 244.118 224.476 243.629H225.815C225.51 244.485 225.016 245.169 224.321 245.668C223.631 246.174 222.821 246.421 221.896 246.421C221.132 246.421 220.431 246.237 219.788 245.869V245.875Z" fill="#231F20"/>
<path d="M229.434 242.699V245.1H232.882V246.294H228.153V238.174H232.767V239.357H229.434V241.505H232.652V242.699H229.434Z" fill="#231F20"/>
<path d="M236.352 246.105C235.915 245.892 235.571 245.594 235.335 245.203C235.094 244.818 234.967 244.37 234.962 243.871H236.266C236.283 244.29 236.427 244.623 236.702 244.881C236.978 245.134 237.369 245.266 237.874 245.266C238.334 245.266 238.69 245.169 238.955 244.962C239.213 244.761 239.345 244.485 239.345 244.141C239.345 243.871 239.271 243.652 239.116 243.48C238.966 243.308 238.777 243.17 238.552 243.067C238.328 242.963 238.012 242.843 237.61 242.711C237.082 242.533 236.656 242.366 236.34 242.205C236.024 242.044 235.749 241.809 235.519 241.493C235.289 241.177 235.174 240.758 235.174 240.241C235.174 239.822 235.289 239.449 235.519 239.115C235.749 238.782 236.065 238.524 236.473 238.334C236.881 238.145 237.34 238.053 237.852 238.053C238.334 238.053 238.777 238.151 239.173 238.346C239.575 238.541 239.897 238.823 240.138 239.179C240.38 239.535 240.512 239.954 240.517 240.425H239.225C239.207 240.069 239.075 239.776 238.823 239.552C238.57 239.322 238.236 239.207 237.817 239.207C237.426 239.207 237.11 239.299 236.863 239.483C236.616 239.667 236.49 239.925 236.49 240.258C236.49 240.511 236.565 240.729 236.714 240.896C236.863 241.062 237.047 241.2 237.277 241.304C237.507 241.407 237.817 241.516 238.202 241.642C238.731 241.82 239.156 241.993 239.477 242.153C239.799 242.314 240.075 242.561 240.311 242.883C240.546 243.21 240.661 243.635 240.661 244.158C240.661 244.583 240.546 244.968 240.311 245.312C240.075 245.657 239.753 245.927 239.334 246.122C238.914 246.317 238.432 246.415 237.892 246.415C237.311 246.415 236.8 246.311 236.358 246.099L236.352 246.105Z" fill="#231F20"/>
<path d="M167.228 242.027L170.802 248H168.705L166.073 243.457L163.43 248H161.345L164.918 242.027L161.695 236.479H163.781L166.096 240.609L168.412 236.479H170.463L167.24 242.027H167.228Z" fill="#231F20"/>
<path d="M167.044 126.421C167.033 126.312 166.878 126.34 166.878 126.225C166.878 126.088 167.038 125.852 167.153 125.697C166.964 125.772 166.82 125.95 166.717 126.202C166.717 126.128 166.688 126.093 166.625 126.111C166.372 126.495 166.642 126.811 166.688 127.093C166.883 126.834 167.067 126.633 167.044 126.421Z" fill="#231F20"/>
<path d="M167.981 124.824C168.124 124.767 168.32 124.606 168.394 124.658C168.406 124.669 168.417 124.761 168.394 124.813C168.394 124.813 168.394 124.807 168.4 124.807C168.4 124.807 168.4 124.801 168.406 124.801C168.693 124.388 168.124 124.732 167.883 124.79C168.101 124.652 167.791 124.571 167.705 124.738C167.728 124.675 167.688 124.681 167.573 124.761C167.55 124.939 167.693 124.951 167.975 124.836L167.981 124.824Z" fill="#231F20"/>
<path d="M175.622 123.859C175.611 123.79 175.616 123.813 175.622 123.859C175.536 123.423 174.335 124.072 174.278 124.428C174.163 125.146 175.743 124.485 175.622 123.865C175.639 123.946 175.668 124.089 175.622 123.865V123.859Z" fill="#231F20"/>
<path d="M167.176 139.141C167.567 138.992 168.073 139.417 168.486 139.17C167.981 138.917 167.51 138.734 167.176 139.141Z" fill="#231F20"/>
<path d="M165.349 125.68C165.188 126.047 165.223 125.726 165.349 125.68V125.68Z" fill="#231F20"/>
<path d="M166.177 125.542C166.355 125.318 166.217 125.324 166.108 125.375C166.067 125.393 165.958 125.513 165.889 125.548C165.815 125.582 165.832 125.525 165.792 125.525C165.792 125.525 165.648 125.496 165.642 125.525C165.659 125.439 165.878 125.295 165.855 125.243C165.815 125.163 164.585 125.961 165.355 125.685C165.223 125.978 165.763 126.087 166.182 125.548L166.177 125.542Z" fill="#231F20"/>
<path d="M167.682 138.096C167.693 138.131 167.877 138.429 167.906 138.447C167.981 138.498 168.36 138.567 168.205 138.332C168.216 138.349 168.216 138.355 168.205 138.332C168.078 138.136 168.17 138.28 168.205 138.332C168.015 138.05 167.487 137.556 167.682 138.096Z" fill="#231F20"/>
<path d="M169.101 139.463C169.262 139.469 169.4 139.268 169.486 139.153C169.239 138.969 168.998 138.935 168.854 139.164C168.843 139.182 168.848 139.176 168.854 139.164C168.728 139.365 168.98 139.457 169.095 139.463H169.101Z" fill="#231F20"/>
<path d="M168.906 139.084C168.906 139.084 168.877 139.136 168.86 139.153C168.888 139.107 168.9 139.09 168.906 139.084Z" fill="#231F20"/>
<path d="M167.303 124.686C167.377 124.577 167.389 124.543 167.372 124.548C167.406 124.457 167.4 124.399 167.176 124.548C166.86 124.772 167.28 124.652 167.303 124.686Z" fill="#231F20"/>
<path d="M180.667 136.856C180.73 136.821 180.787 136.787 180.851 136.758C180.994 136.689 181.144 136.637 181.293 136.603L182.425 136.333L183.562 134.84L179.047 132.457C178.897 132.893 178.662 133.318 178.667 133.812C178.685 134.564 178.983 135.449 179.46 136.023C179.788 136.419 180.207 136.666 180.667 136.85V136.856Z" fill="#231F20"/>
<path d="M180.833 141.892C180.063 142.61 179.225 143.311 178.305 143.989C172.847 147.986 166.366 149.881 161.936 149.1C160.598 148.864 159.443 148.382 158.564 147.647C158.564 147.647 160.374 151.713 164.528 152.029C167.55 152.258 170.83 151.374 174.186 149.772C177.857 148.026 180.833 145.671 182.798 143.202L182.235 142.49L180.839 141.898L180.833 141.892Z" fill="#231F20"/>
<path d="M182.356 142.024L181.213 141.536C181.092 141.657 180.96 141.772 180.833 141.892L182.23 142.484L182.793 143.196C182.873 143.092 182.965 142.989 183.045 142.886L182.356 142.019V142.024Z" fill="#231F20"/>
<path d="M176.817 150.8C176.495 150.8 176.174 150.788 175.858 150.765C175.536 150.932 175.22 151.104 174.892 151.259C173.657 151.845 172.462 152.327 171.296 152.701C173.037 153.252 174.893 153.551 176.817 153.551C184.011 153.551 190.221 149.399 193.215 143.368L191.175 141.186C188.837 146.814 183.292 150.794 176.817 150.794V150.8Z" fill="#231F20"/>
<path d="M180.994 121.66C180.994 121.533 181.195 121.212 181.098 121.126C180.908 120.965 180.776 121.177 180.713 121.287C180.638 121.407 180.667 121.637 180.615 121.78C180.506 122.073 180.408 122.119 180.575 122.378C180.736 122.636 181.034 122.642 181.069 123.027C181.086 123.239 181.017 123.469 180.937 123.687C180.937 123.687 180.937 123.699 180.931 123.704C180.931 123.722 180.92 123.739 180.914 123.756C180.897 123.796 180.879 123.842 180.868 123.877C180.609 124.537 181.523 123.917 181.707 123.67C181.948 123.354 181.816 123.251 181.764 122.946C181.712 122.63 181.781 122.447 181.959 122.154C181.396 122.274 181 122.119 181 121.654L180.994 121.66Z" fill="#231F20"/>
<path d="M167.044 126.421C167.033 126.312 166.878 126.34 166.878 126.225C166.878 126.088 167.038 125.852 167.153 125.697C166.964 125.772 166.82 125.95 166.717 126.202C166.717 126.128 166.688 126.093 166.625 126.111C166.372 126.495 166.642 126.811 166.688 127.093C166.883 126.834 167.067 126.633 167.044 126.421Z" fill="#231F20"/>
<path d="M167.981 124.824C168.124 124.767 168.32 124.606 168.394 124.658C168.406 124.669 168.417 124.761 168.394 124.813C168.394 124.813 168.394 124.807 168.4 124.807C168.4 124.807 168.4 124.801 168.406 124.801C168.693 124.388 168.124 124.732 167.883 124.79C168.101 124.652 167.791 124.571 167.705 124.738C167.728 124.675 167.688 124.681 167.573 124.761C167.55 124.939 167.693 124.951 167.975 124.836L167.981 124.824Z" fill="#231F20"/>
<path d="M176.817 116.95C172.698 116.95 168.894 118.312 165.838 120.609C163.752 122.159 162.04 124.135 160.787 126.415C160.759 126.461 160.73 126.513 160.707 126.558C160.626 126.708 160.552 126.857 160.477 127.006C160.408 127.139 160.339 127.271 160.276 127.408C160.236 127.489 160.201 127.575 160.161 127.655C160.069 127.856 159.977 128.063 159.891 128.264C159.874 128.299 159.862 128.339 159.845 128.373C159.747 128.62 159.65 128.867 159.558 129.12C159.558 129.126 159.558 129.131 159.552 129.137C159.546 129.16 159.541 129.183 159.529 129.206C159.443 129.453 159.357 129.706 159.282 129.958C159.259 130.044 159.236 130.131 159.207 130.211C159.156 130.401 159.098 130.59 159.052 130.78C159.001 130.975 158.96 131.176 158.914 131.377C158.897 131.452 158.88 131.526 158.863 131.601C158.271 134.461 158.386 137.396 159.179 140.204C159.202 140.29 159.225 140.376 159.248 140.462C159.288 140.594 159.334 140.732 159.374 140.864C159.426 141.031 159.483 141.197 159.541 141.358C159.569 141.433 159.598 141.513 159.627 141.588C159.707 141.806 159.793 142.019 159.88 142.237C159.897 142.277 159.914 142.323 159.931 142.363C160.035 142.604 160.138 142.84 160.247 143.075C160.253 143.093 160.259 143.11 160.27 143.121C160.27 143.133 160.282 143.139 160.288 143.15C160.5 143.598 160.736 144.034 160.983 144.459C161.011 144.505 161.034 144.551 161.063 144.592C161.299 144.982 161.54 145.367 161.804 145.74C161.827 145.769 161.845 145.803 161.862 145.832C161.873 145.843 161.885 145.861 161.896 145.872C162.321 146.469 162.781 147.044 163.275 147.589C163.516 147.607 163.758 147.618 164.016 147.618C164.959 147.618 165.958 147.509 166.998 147.308C163.494 144.454 161.253 140.112 161.253 135.253C161.253 134.208 161.356 133.192 161.552 132.21C161.672 132.548 161.799 132.927 161.925 133.347C162.109 133.961 162.281 134.622 162.367 135.248C162.454 135.862 162.505 136.442 162.729 137.028C162.93 137.556 163.183 137.866 163.436 138.32C163.574 138.567 163.695 138.866 163.838 139.118C163.913 139.251 164.005 139.354 164.08 139.48C164.304 139.854 164.528 140.296 164.522 139.716C164.792 139.922 165.039 140.462 165.344 140.732C165.637 140.991 165.93 141.042 166.228 141.065C166.573 141.094 166.941 141.083 167.377 141.329C167.734 141.536 168.262 142.105 168.653 142.059C169.038 142.019 169.015 141.496 169.457 142.214C169.865 142.869 169.566 143.397 170.009 144.006C170.4 144.551 171.175 144.879 171.75 145.235C171.934 145.35 172.117 145.47 172.319 145.551C172.462 145.487 172.606 145.419 172.755 145.35C174.347 144.592 175.875 143.678 177.3 142.633C177.599 142.415 177.886 142.197 178.167 141.967C178.058 141.548 177.76 141.352 177.237 141.347C176.587 141.335 175.99 141.565 175.358 141.565C175.065 141.565 174.772 141.553 174.49 141.421C174.192 141.284 174.013 140.996 173.726 140.864C173.445 140.732 173.238 140.818 172.974 140.836C172.612 140.864 172.583 140.824 172.181 140.692C171.554 140.48 170.963 140.543 170.417 140.583C170.164 140.6 169.756 140.566 169.572 140.686C169.365 140.824 169.411 141.106 169.285 141.301C169.17 141.479 168.975 141.542 168.802 141.617C168.55 141.72 168.527 141.852 168.257 141.64C167.745 141.238 168.004 140.721 167.406 140.646C167.228 140.623 167.217 140.738 167.061 140.52C166.895 140.296 167.033 139.991 166.924 139.79C166.516 139.067 166.527 140.279 166.441 140.382C166.188 140.698 165.746 140.089 165.568 139.676C165.361 139.199 165.257 138.607 165.43 138.246C165.562 137.947 166.28 137.304 166.682 137.533C166.774 137.591 167.51 138.952 167.343 138.01C167.291 137.729 167.061 137.464 167.015 137.154C166.975 136.879 167.004 136.637 167.09 136.402C167.222 136.052 167.389 135.874 167.429 135.437C167.458 135.133 167.418 134.811 167.498 134.507C167.584 134.197 167.768 134.088 167.889 133.823C168.015 133.542 167.9 133.157 168.188 132.933C168.44 132.738 168.641 132.956 168.854 132.6C169.118 132.169 168.854 132.256 168.751 131.94C168.624 131.566 168.728 131.653 168.894 131.4C168.894 131.4 169.331 130.917 169.136 130.894C169.256 130.716 169.498 130.36 169.664 130.234C169.653 130.418 169.475 130.981 169.521 131.118C169.595 131.354 170.244 131.314 170.348 131.044C170.44 130.803 169.94 130.498 169.888 130.24C169.825 129.912 169.865 129.786 169.681 129.585C169.4 129.281 169.187 129.114 169.021 128.706C168.986 128.632 168.894 128.247 168.82 128.253C168.67 128.258 168.624 128.523 168.532 128.614C167.9 129.246 168.205 127.535 167.452 128.19C166.849 128.672 167.217 129.625 167.021 130.194C166.929 130.435 166.78 130.625 166.722 130.889C166.688 131.038 166.734 131.325 166.613 131.417C166.452 131.532 166.389 130.826 166.223 130.711C165.723 130.355 164.838 130.55 165.441 129.275C165.671 128.804 165.901 128.477 166.257 128.362C166.521 128.276 166.665 128.258 166.814 127.902C166.86 127.793 166.843 127.632 166.895 127.512C166.97 127.328 167.153 127.11 167.251 126.897C167.423 126.518 167.377 126.243 167.797 126.145C168.073 126.082 168.268 126.312 168.13 126.691C167.998 127.058 167.395 127.374 167.423 127.684C167.837 127.449 167.803 127.638 168.061 127.793C168.331 127.954 168.877 127.701 168.866 127.162C168.866 127.041 168.636 126.892 168.716 126.76C168.825 126.581 168.917 126.759 169.009 126.714C169.13 126.65 169.354 126.501 169.383 126.289C169.406 126.099 169.147 126.116 169.067 126.03C168.848 125.789 169.101 125.456 168.733 125.416C168.486 125.393 168.302 125.375 168.314 125.123C168.325 124.841 168.527 124.732 168.785 124.399C169.078 124.032 169.205 123.888 169.664 123.566C169.854 123.434 170.302 123.136 170.084 123.365C170.049 123.406 169.923 123.469 169.865 123.52C169.739 123.635 169.624 123.819 169.624 123.899C169.635 124.095 169.934 123.899 170.175 123.848C170.555 123.773 170.486 124.083 170.537 124.376C170.537 124.411 170.491 124.491 170.509 124.52C170.52 124.543 170.658 124.583 170.658 124.589C170.675 124.732 170.583 124.658 170.526 124.853C170.474 125.025 170.365 124.956 170.457 125.065C170.583 125.215 170.687 124.864 170.67 125.197C170.67 125.307 170.491 125.594 170.463 125.731C170.423 125.927 170.423 126.116 170.463 126.289C170.532 126.622 170.75 126.915 171.089 127.018C171.824 127.236 171.761 126.277 172.037 125.749C172.227 125.381 172.692 124.95 172.985 124.589C173.336 124.164 173.812 123.922 174.151 123.526C174.467 123.153 174.565 122.768 174.64 122.447C174.64 122.447 174.64 122.447 174.64 122.441C174.64 122.418 174.651 122.401 174.651 122.372C174.858 122.148 174.864 122.016 174.87 121.855C174.875 121.637 174.697 121.533 174.824 121.321C174.898 121.189 175.479 120.787 175.41 120.764C175.341 120.729 175.065 120.925 174.933 120.982C174.755 121.062 174.674 121.074 174.559 121.097C174.272 121.149 174.197 121.16 173.72 121.39C173.548 121.47 173.445 121.528 173.267 121.62C173.175 121.665 172.79 121.843 172.749 121.866C172.652 121.924 172.629 121.987 172.577 122.022C172.445 122.102 172.227 122.165 172.117 122.217C171.801 122.355 171.411 122.55 171.078 122.722C171.244 122.613 170.859 122.739 170.859 122.739C170.624 122.82 170.336 122.958 170.026 123.101C169.745 123.233 169.417 123.36 169.095 123.526C168.969 123.589 168.911 123.618 168.894 123.63C168.889 123.635 168.854 123.658 168.774 123.716C168.716 123.756 168.728 123.802 168.682 123.836C168.504 123.888 168.682 123.71 168.331 123.922C167.935 124.146 167.854 124.439 167.791 124.612C167.676 124.669 167.573 124.646 167.406 124.784C167.211 124.945 167.24 125.025 167.205 125.146C167.171 125.261 167.079 125.398 167.171 125.433C167.234 125.462 167.383 125.358 167.458 125.358C167.337 125.433 167.113 125.588 167.004 125.668C166.797 125.818 166.82 125.852 166.665 125.996C166.119 126.518 166.481 125.887 166.596 125.651C166.033 125.984 166.309 126.013 166.257 126.294C166.36 126.277 166.343 126.329 166.223 126.455C166.125 126.553 166.096 126.627 166.119 126.691C166.079 126.817 166.211 127.075 165.987 127.271C165.832 127.403 165.861 127.242 165.78 127.282C165.453 127.466 165.188 127.897 165.051 127.523C165.257 127.414 165.545 127.029 165.711 127.029C165.642 126.869 165.619 126.289 165.487 126.289C165.367 126.283 165.177 126.467 165.068 126.392C165.005 126.346 165.022 126.248 164.941 126.225C164.913 126.22 164.89 126.214 164.861 126.214C164.712 126.208 164.533 126.3 164.315 126.536C164.154 126.702 163.752 127.23 163.913 127.294C163.999 127.328 164.16 127.121 164.252 127.087C164.286 127.075 164.315 127.087 164.327 127.15C164.327 127.179 164.212 127.569 164.177 127.627C164.074 127.782 163.947 127.799 163.832 127.776C163.712 127.753 163.591 127.696 163.505 127.707C163.384 127.724 163.275 127.782 163.166 127.845C165.803 122.998 170.945 119.696 176.84 119.696C178.076 119.696 179.271 119.845 180.42 120.115C180.184 120.235 179.96 120.385 179.765 120.563C179.736 120.592 179.707 120.614 179.679 120.643C179.225 121.085 179.454 121.424 179.271 121.953C179.075 122.527 178.38 123.159 178.949 123.687C179.248 123.963 179.874 124.135 179.92 124.658C179.966 125.163 179.363 125.519 179.202 125.996C179.029 125.657 178.782 125.542 178.489 125.347C178.225 125.174 178.15 124.956 177.943 124.784C177.783 124.652 177.535 124.502 177.311 124.784C177.105 125.042 177.398 125.111 177.363 125.335C177.323 125.645 176.656 126.134 176.967 126.536C177.357 127.041 177.587 126.088 177.961 126.375C178.202 126.513 177.949 126.696 178.305 126.679C178.42 126.673 178.644 126.495 178.753 126.444C178.753 126.61 178.472 126.949 178.495 127.047C178.524 127.156 178.69 127.19 178.863 127.225L179.035 127.11C179.265 126.949 179.5 126.811 179.747 126.696C180.334 126.415 180.966 126.271 181.563 126.271C181.638 126.271 181.718 126.277 181.793 126.289L182.672 126.415L182.856 126.174C183.08 125.881 183.367 125.645 183.695 125.49C184.424 125.14 185.263 125.22 185.884 125.697L186.309 126.024C186.343 126.047 186.378 126.076 186.406 126.105C186.527 126.013 186.659 125.938 186.791 125.869C187.521 125.519 188.36 125.599 188.986 126.076L189.411 126.403C189.538 126.501 189.653 126.61 189.75 126.731L189.796 126.685C189.796 126.685 189.802 126.696 189.808 126.702L191.56 124.405C188.228 119.879 182.873 116.939 176.817 116.939V116.95ZM167.711 124.732C167.803 124.566 168.113 124.646 167.889 124.784C168.13 124.732 168.699 124.388 168.412 124.795C168.412 124.795 168.412 124.795 168.406 124.801C168.406 124.801 168.406 124.801 168.4 124.807C168.417 124.755 168.406 124.658 168.4 124.652C168.331 124.6 168.13 124.761 167.986 124.818C167.705 124.933 167.567 124.922 167.584 124.744C167.699 124.663 167.739 124.652 167.716 124.721L167.711 124.732ZM166.625 126.111C166.688 126.099 166.722 126.128 166.717 126.202C166.82 125.944 166.964 125.772 167.153 125.697C167.038 125.852 166.878 126.088 166.878 126.225C166.878 126.34 167.033 126.312 167.044 126.421C167.067 126.633 166.883 126.834 166.688 127.093C166.642 126.811 166.372 126.495 166.625 126.111ZM181.753 122.952C181.804 123.256 181.936 123.36 181.695 123.676C181.511 123.922 180.604 124.543 180.856 123.882C180.874 123.842 180.885 123.802 180.902 123.762C180.908 123.739 180.914 123.721 180.92 123.71C180.92 123.704 180.92 123.698 180.925 123.693C181.006 123.469 181.08 123.245 181.057 123.032C181.023 122.653 180.724 122.642 180.563 122.383C180.397 122.119 180.494 122.079 180.604 121.786C180.661 121.642 180.627 121.413 180.701 121.292C180.77 121.183 180.902 120.976 181.086 121.131C181.184 121.218 180.983 121.539 180.983 121.665C180.983 122.131 181.379 122.28 181.942 122.165C181.758 122.458 181.689 122.642 181.747 122.958L181.753 122.952Z" fill="#231F20"/>
<path d="M197.645 122.47C197.627 122.441 197.599 122.412 197.576 122.395C197.547 122.372 197.518 122.355 197.484 122.349C196.444 122.039 194.565 123.21 193.692 124.347L190.003 129.183L188.061 128.907L188.412 128.448C188.59 128.213 188.578 127.902 188.389 127.753L187.963 127.426C187.768 127.276 187.464 127.351 187.286 127.587L186.458 128.672L185.01 128.465L185.315 128.069C185.493 127.833 185.481 127.523 185.292 127.374L184.867 127.047C184.671 126.897 184.367 126.972 184.189 127.207L183.407 128.235L181.552 127.971C181.04 127.971 180.489 128.161 179.983 128.517L178.644 129.419C178.271 129.786 178.323 130.355 178.73 130.401L186.113 134.294L183.545 137.654C183.453 137.769 183.333 137.855 183.2 137.884L181.689 138.24C181.626 138.257 181.569 138.28 181.511 138.314L180.448 139.004C180.121 139.216 180.046 139.676 180.305 139.871L183.252 141.123L183.287 141.146L185.275 143.655C185.533 143.856 185.958 143.655 186.079 143.288L186.464 142.082C186.487 142.019 186.493 141.956 186.493 141.892L186.441 140.342C186.441 140.21 186.481 140.066 186.573 139.951L189.141 136.592L194.847 142.685C195.002 143.07 195.559 142.966 195.818 142.507L196.335 140.979C196.547 140.399 196.582 139.819 196.444 139.325L195.697 137.608L196.478 136.58C196.656 136.345 196.645 136.034 196.455 135.885L196.03 135.558C195.835 135.408 195.53 135.483 195.352 135.719L195.048 136.115L194.467 134.771L195.295 133.686C195.473 133.45 195.461 133.14 195.272 132.991L194.847 132.663C194.651 132.514 194.347 132.589 194.169 132.824L193.818 133.284L193.037 131.486L196.725 126.65C197.599 125.508 198.231 123.388 197.656 122.47H197.645Z" fill="#231F20"/>
<path d="M42.1718 150.294V120.212H51.0256C54.4097 120.212 57.3514 120.833 59.8622 122.079C62.3672 123.325 64.3034 125.088 65.6651 127.362C67.0268 129.642 67.7048 132.267 67.7048 135.248C67.7048 138.228 67.0211 140.853 65.6651 143.133C64.3034 145.413 62.3672 147.17 59.8622 148.416C57.3514 149.663 54.4097 150.283 51.0256 150.283H42.1718V150.294ZM51.0314 145.872C53.4675 145.872 55.5761 145.436 57.3514 144.563C59.1268 143.69 60.4884 142.449 61.4365 140.847C62.3845 139.245 62.8556 137.378 62.8556 135.259C62.8556 133.14 62.3845 131.279 61.4365 129.671C60.4884 128.069 59.1268 126.823 57.3514 125.932C55.5761 125.042 53.4675 124.6 51.0314 124.6H46.9061V145.872H51.0314Z" fill="#231F20"/>
<path d="M81.8099 150.294H77.0814V120.212H81.8099V150.294Z" fill="#231F20"/>
<path d="M96.1047 149.588C94.4845 148.801 93.232 147.693 92.3414 146.257C91.4509 144.827 90.9912 143.179 90.9683 141.318H95.783C95.8404 142.863 96.3748 144.109 97.3975 145.057C98.4144 146.004 99.8565 146.475 101.718 146.475C103.407 146.475 104.734 146.102 105.694 145.355C106.653 144.609 107.136 143.592 107.136 142.306C107.136 141.301 106.855 140.485 106.297 139.859C105.74 139.228 105.045 138.722 104.212 138.332C103.379 137.947 102.218 137.51 100.73 137.022C98.7821 136.362 97.2193 135.742 96.0415 135.15C94.8637 134.564 93.8582 133.68 93.0079 132.508C92.1633 131.337 91.7382 129.786 91.7382 127.868C91.7382 126.323 92.1633 124.933 93.0079 123.699C93.8525 122.469 95.0303 121.499 96.5356 120.798C98.041 120.098 99.7359 119.747 101.632 119.747C103.407 119.747 105.033 120.115 106.51 120.844C107.986 121.574 109.176 122.607 110.078 123.94C110.98 125.272 111.445 126.811 111.474 128.557H106.699C106.642 127.242 106.148 126.157 105.217 125.312C104.286 124.468 103.045 124.043 101.5 124.043C100.063 124.043 98.8913 124.388 97.972 125.077C97.0527 125.766 96.5988 126.725 96.5988 127.954C96.5988 128.902 96.8689 129.688 97.4147 130.32C97.9605 130.952 98.6557 131.452 99.5003 131.825C100.345 132.198 101.482 132.612 102.919 133.071C104.867 133.732 106.435 134.363 107.624 134.961C108.814 135.564 109.836 136.465 110.698 137.665C111.56 138.866 111.985 140.445 111.985 142.392C111.985 143.966 111.554 145.396 110.698 146.671C109.836 147.945 108.636 148.95 107.084 149.68C105.533 150.409 103.758 150.777 101.753 150.777C99.6037 150.777 97.7192 150.38 96.099 149.594L96.1047 149.588Z" fill="#231F20"/>
<path d="M126.992 148.727C124.614 147.365 122.724 145.505 121.316 143.139C119.914 140.772 119.207 138.148 119.207 135.253C119.207 132.359 119.908 129.723 121.316 127.345C122.718 124.968 124.614 123.107 126.992 121.757C129.371 120.414 131.962 119.736 134.772 119.736C138.156 119.736 141.115 120.666 143.649 122.527C146.188 124.388 148.015 126.909 149.13 130.09H144.189C143.298 128.258 142.034 126.805 140.385 125.732C138.736 124.658 136.869 124.118 134.772 124.118C132.795 124.118 130.991 124.612 129.354 125.599C127.722 126.587 126.429 127.925 125.487 129.62C124.539 131.308 124.068 133.186 124.068 135.248C124.068 137.309 124.539 139.187 125.487 140.876C126.435 142.564 127.722 143.897 129.354 144.873C130.986 145.849 132.795 146.332 134.772 146.332C136.921 146.332 138.822 145.792 140.466 144.718C142.115 143.644 143.384 142.202 144.269 140.399H149.216C148.096 143.581 146.263 146.102 143.712 147.963C141.161 149.823 138.179 150.754 134.772 150.754C131.962 150.754 129.371 150.076 126.992 148.715V148.727Z" fill="#231F20"/>
<path d="M219.368 142.386L227.148 120.212H232.175L221.167 150.294H217.467L206.458 120.212H211.572L219.351 142.386H219.368Z" fill="#231F20"/>
<path d="M244.821 136.976V145.872H257.547V150.3H240.092V120.218H257.116V124.6H244.821V132.548H256.685V136.976H244.821Z" fill="#231F20"/>
<path d="M284.671 150.294L274.956 138.521H271.859V150.294H267.13V120.212H276.588C278.708 120.212 280.558 120.609 282.132 121.395C283.706 122.182 284.924 123.273 285.786 124.663C286.648 126.053 287.073 127.621 287.073 129.367C287.073 131.457 286.476 133.272 285.286 134.8C284.097 136.333 282.454 137.401 280.362 138.004L290.549 150.294H284.66H284.671ZM271.859 124.6V134.099H276.547C278.323 134.099 279.713 133.663 280.719 132.79C281.724 131.917 282.224 130.78 282.224 129.372C282.224 127.965 281.724 126.823 280.719 125.932C279.713 125.042 278.323 124.6 276.547 124.6H271.859Z" fill="#231F20"/>
<path d="M302.425 150.294H297.696V120.212H302.425V150.294Z" fill="#231F20"/>
<path d="M318.248 136.976V145.872H330.974V150.3H313.52V120.218H330.543V124.6H318.248V132.548H330.112V136.976H318.248Z" fill="#231F20"/>
<path d="M343.764 149.588C342.144 148.801 340.891 147.693 340 146.257C339.11 144.827 338.65 143.179 338.627 141.318H343.442C343.499 142.863 344.034 144.109 345.057 145.057C346.073 146.004 347.516 146.475 349.377 146.475C351.066 146.475 352.394 146.102 353.353 145.355C354.312 144.609 354.795 143.592 354.795 142.306C354.795 141.301 354.514 140.485 353.956 139.859C353.399 139.228 352.704 138.722 351.871 138.332C351.038 137.947 349.877 137.51 348.389 137.022C346.441 136.362 344.878 135.742 343.701 135.15C342.523 134.564 341.517 133.68 340.667 132.508C339.822 131.337 339.397 129.786 339.397 127.868C339.397 126.323 339.822 124.933 340.667 123.699C341.512 122.469 342.689 121.499 344.195 120.798C345.7 120.098 347.401 119.747 349.291 119.747C351.066 119.747 352.692 120.115 354.169 120.844C355.645 121.574 356.835 122.607 357.737 123.94C358.639 125.272 359.104 126.811 359.133 128.557H354.358C354.301 127.242 353.807 126.157 352.876 125.312C351.945 124.468 350.704 124.043 349.159 124.043C347.722 124.043 346.55 124.388 345.631 125.077C344.712 125.766 344.258 126.725 344.258 127.954C344.258 128.902 344.528 129.688 345.074 130.32C345.62 130.952 346.315 131.452 347.159 131.825C348.004 132.198 349.142 132.612 350.578 133.071C352.526 133.732 354.094 134.363 355.283 134.961C356.473 135.564 357.495 136.465 358.357 137.665C359.219 138.866 359.644 140.445 359.644 142.392C359.644 143.966 359.213 145.396 358.357 146.671C357.495 147.945 356.295 148.95 354.743 149.68C353.198 150.409 351.417 150.777 349.412 150.777C347.263 150.777 345.378 150.38 343.758 149.594L343.764 149.588Z" fill="#231F20"/>
<path d="M181.259 177.148H42.1718" stroke="#231F20" stroke-width="2" stroke-miterlimit="10"/>
<path d="M359.65 177.148H218.84" stroke="#231F20" stroke-width="2" stroke-miterlimit="10"/>
<path d="M197.874 179.09C198.369 179.744 198.616 180.514 198.616 181.41C198.616 182.306 198.397 183.052 197.966 183.741C197.535 184.431 196.903 184.97 196.076 185.355C195.249 185.746 194.272 185.935 193.14 185.935H188.348V170.55H192.853C194.444 170.55 195.691 170.923 196.599 171.67C197.507 172.416 197.955 173.404 197.955 174.639C197.955 175.299 197.765 175.902 197.392 176.454C197.018 177.005 196.519 177.418 195.904 177.694C196.731 177.976 197.386 178.441 197.88 179.09H197.874ZM190.773 172.686V176.93H192.847C193.669 176.93 194.318 176.735 194.778 176.339C195.243 175.942 195.473 175.431 195.473 174.8C195.473 174.168 195.237 173.68 194.766 173.283C194.295 172.887 193.652 172.692 192.847 172.692H190.773V172.686ZM193.18 183.782C194.077 183.782 194.795 183.552 195.323 183.087C195.852 182.627 196.116 182.053 196.116 181.364C196.116 180.675 195.852 180.1 195.323 179.641C194.795 179.182 194.077 178.946 193.18 178.946H190.773V183.782H193.18Z" fill="#231F20"/>
<path d="M207.251 177.034L210.716 170.55H213.433L208.417 179.474V185.935H205.987V179.474L200.994 170.55H203.752L207.24 177.034H207.251Z" fill="#231F20"/>
</g>
<defs>
<clipPath id="clip0_383_78">
<rect width="402" height="248" fill="white"/>
</clipPath>
</defs>
</svg>
