<svg width="475" height="629" viewBox="0 0 475 629" fill="none" xmlns="http://www.w3.org/2000/svg">
<path d="M30.2351 626.91H443.993L472.098 3.07731C463.77 6.57425 454.516 9.90979 444.563 12.9763C389.839 29.8585 316.199 39.1442 237.114 39.1442C158.029 39.1442 84.3893 29.8585 29.7509 13.0086C19.7335 9.92055 10.4801 6.58501 2.13045 3.07731L30.2243 626.91H30.2351ZM445.898 628.911H28.3198L0 0L1.46334 0.624069C10.125 4.33621 19.8088 7.84391 30.2459 11.0719C84.7981 27.9002 158.234 37.1429 237.114 37.1429C315.994 37.1429 389.43 27.8894 443.886 11.0934C454.441 7.83315 464.125 4.31469 472.765 0.624069L474.228 0L445.898 628.911Z" fill="#FFF9F4"/>
<g clip-path="url(#clip0_496_14)">
<path d="M70.0867 210H37.3423L34 218.221V218.244H43.4119C43.4351 218.366 43.4583 218.464 43.4583 218.586V302.004C43.4583 302.125 43.4351 302.224 43.4351 302.345H37.145L34 310.08V310.566H61.0636C98.7112 310.566 114.169 286.141 114.169 255.006C114.169 228.439 100.005 210 70.0867 210ZM66.5993 301.784C65.8217 301.83 65.0384 301.859 64.2086 301.859C61.5046 301.859 58.5046 301.859 58.5046 299.717V219.732C58.5046 219.732 61.9166 218.736 67.7946 218.736C68.4503 218.736 69.0596 218.782 69.6979 218.811C88.4985 219.807 98.276 235.062 98.276 257.443C98.276 279.825 90.3728 300.452 66.6051 301.79L66.5993 301.784ZM416.981 270.574C405.811 265.438 402.254 260.865 402.254 255.712C402.254 251.428 405.399 244.719 415.983 244.719C421.565 244.719 428.296 247.15 428.296 252.991C428.25 254.375 427.542 255.909 426.689 257.247L435.248 260.703C435.538 260.413 435.834 260.118 436.101 259.829C438.491 257.42 439.954 254.161 440 250.849C440.023 249.124 439.634 247.393 438.805 245.766C437.586 243.404 435.561 241.558 433.292 240.197C428.174 237.036 421.907 236.162 415.983 236.162C398.523 236.162 388.211 245.454 388.211 256.28C388.211 267.106 394.942 274.308 408.84 281.023C420.619 286.737 425.174 290.315 425.151 295.618C425.105 304.447 413.035 305.761 406.693 303.133C405.573 302.67 404.499 302.015 403.745 301.066C402.062 298.924 402.259 295.566 402.306 292.944L390.503 288.202V293.604C390.503 299.005 392.14 304.088 396.527 307.59C400.67 310.925 406.06 312.332 411.277 312.65C412.031 312.697 412.791 312.726 413.569 312.726C427.025 312.726 437.876 305.159 437.876 292.585C437.876 280.74 426.88 275.315 416.981 270.591V270.574ZM387.155 223.865C389.569 224.062 391.153 225.469 391.153 227.414C391.153 229.359 389.859 231.426 386.569 233.424L389.273 237.146C391.884 236.075 394.368 234.662 396.492 232.816C398.296 231.189 399.811 229.215 400.733 226.974C401.267 225.637 401.563 224.3 401.563 222.887V215.32C401.563 214.006 400.223 213.109 399.004 213.595L385.838 218.921C385.838 220.745 385.838 223.836 385.861 223.86C386.302 223.813 386.737 223.813 387.155 223.86V223.865ZM247.468 299.277L264.609 242.426H268.241L270.388 237.146H249.029L246.882 242.426H252.83C251.489 247.926 251.315 248.435 251.025 249.576L242.733 282.708L231.418 237.146H215.228L213.081 242.426H215.693L218.107 250.427L209.646 282.853L201.064 248.551C200.675 247.017 199.747 243.323 199.526 242.443H201.795L204.157 242.466V242.443H206.495V237.14H180.262L178.115 242.42H182.501L184.039 247.434L199.764 299.271C200.2 300.707 201.569 305.281 201.569 305.281H197.525L195.378 310.56H215.739L217.886 305.281H212.403C212.403 305.281 213.697 300.973 214.23 299.271L223.544 268.426L232.979 299.271C233.565 300.973 233.93 302.287 234.221 303.237C234.783 305.037 234.853 305.281 234.853 305.281H231.151L229.004 310.56H249.342L251.489 305.281H245.663L246.296 303.162C246.638 302.021 247.027 300.707 247.468 299.271V299.277ZM162.181 301.882C158.96 303.538 155.159 304.047 151.626 303.318C143.751 301.691 138.778 294.269 136.022 287.287L175.109 267.731C177.105 266.712 178.254 265.155 178.254 261.432C178.254 257.71 176.252 236.156 149.751 236.156C123.251 236.156 117.982 259.001 117.982 271.865C117.982 296.145 131.003 312.147 154.48 312.147C159.627 312.147 165.233 311.319 169.695 308.598C173.594 306.189 176.693 302.519 178.422 298.31C179.908 294.709 180.859 291.108 180.859 287.195C177.592 288.509 171.546 291.207 168.279 292.544C168.302 296.73 165.842 300.012 162.181 301.888V301.882ZM132.726 270.012C132.726 256.436 136.434 244.423 148.893 244.423C149.67 244.423 150.407 244.522 151.138 244.643C158.037 245.813 163.063 252.401 163.063 261.577C163.063 263.013 162.918 264.304 161.357 265.155L138.047 276.901L133.585 279.142C132.999 276.149 132.732 272.426 132.732 270.018L132.726 270.012ZM353.366 245.297C353.442 245.13 352.954 244.226 352.879 244.059C352.513 243.283 351.562 241.992 350.169 240.822C348.753 239.676 346.949 238.657 344.854 238.391C344.854 238.391 344.413 238.999 343.734 240.093C343.078 241.164 342.219 242.744 341.366 244.643C339.661 244.568 335.61 244.499 333.904 244.446L331.711 249.871H332.465C340.049 249.871 340.316 250.16 340.316 256.002V305.286C339.22 305.286 337.833 305.263 335.808 305.263L333.661 310.566H359.21L361.357 305.286H354.771V266.556C354.771 255.707 360.086 248.435 367.084 248.435C370.96 248.435 372.666 250.282 372.666 252.864C372.666 256.002 369.521 262.278 369.521 262.278L376.96 264.153L387.126 240.411C384.057 237.685 378.985 235.716 373.107 235.716C366.231 235.716 357.063 238.732 353.355 245.303L353.366 245.297ZM323.326 293.001V254.856C323.326 246.855 323.912 244.006 325.908 243.155L327.347 242.571L323.761 237.001L322.322 237.586C319.322 238.727 316.885 240.579 315.034 243.451C310.862 239.143 304.427 236.15 297.139 236.15C275.802 236.15 264.638 254.566 264.638 274.296C264.638 303.416 280.972 311.562 294.266 311.562C301.433 311.562 307.311 308.714 310.601 304.846C312.017 308.714 315.603 311.267 319.891 310.711L332.158 297.697C327.231 297.772 323.332 298.669 323.332 293.001H323.326ZM308.866 284.416C308.866 295.85 302.988 301.564 295.845 301.564C279.945 301.564 279.388 282.008 279.388 272.42C279.388 260.987 284.384 245.153 296.698 245.153C304.16 245.153 308.866 248.435 308.866 257.999V284.416Z" fill="white"/>
<path d="M177.407 407.508H165.714L164.519 410.443V410.455H167.879C167.885 410.496 167.896 410.53 167.896 410.577V440.357C167.896 440.397 167.89 440.432 167.89 440.478H165.645L164.519 443.24V443.414H174.18C187.619 443.414 193.144 434.695 193.144 423.574C193.144 414.091 188.084 407.508 177.407 407.508ZM176.159 440.282C175.881 440.299 175.602 440.311 175.306 440.311C174.343 440.311 173.269 440.311 173.269 439.546V410.988C173.269 410.988 174.488 410.635 176.589 410.635C176.821 410.635 177.041 410.652 177.267 410.663C183.981 411.017 187.469 416.464 187.469 424.454C187.469 432.443 184.648 439.807 176.159 440.287V440.282ZM301.259 429.137C297.272 427.302 296.001 425.669 296.001 423.828C296.001 422.3 297.127 419.903 300.905 419.903C302.901 419.903 305.303 420.772 305.303 422.856C305.286 423.354 305.036 423.898 304.729 424.378L307.787 425.611C307.891 425.507 307.995 425.403 308.094 425.299C308.947 424.436 309.469 423.273 309.487 422.092C309.493 421.472 309.359 420.858 309.057 420.274C308.622 419.428 307.897 418.769 307.09 418.282C305.262 417.153 303.023 416.841 300.91 416.841C294.678 416.841 290.994 420.158 290.994 424.025C290.994 427.892 293.396 430.463 298.357 432.86C302.564 434.903 304.189 436.177 304.183 438.07C304.166 441.225 299.854 441.694 297.591 440.756C297.191 440.594 296.808 440.357 296.535 440.015C295.932 439.251 296.001 438.053 296.025 437.115L291.812 435.419V437.346C291.812 439.274 292.398 441.092 293.965 442.343C295.444 443.535 297.371 444.039 299.233 444.149C299.506 444.166 299.773 444.172 300.052 444.172C304.856 444.172 308.732 441.468 308.732 436.982C308.732 432.75 304.804 430.816 301.27 429.131L301.259 429.137ZM290.611 412.464C291.475 412.533 292.038 413.037 292.038 413.732C292.038 414.427 291.58 415.168 290.402 415.88L291.371 417.211C292.305 416.829 293.193 416.325 293.947 415.665C294.591 415.081 295.131 414.38 295.462 413.581C295.653 413.101 295.758 412.626 295.758 412.122V409.419C295.758 408.95 295.282 408.626 294.841 408.799L290.141 410.704C290.141 411.358 290.141 412.458 290.146 412.47C290.303 412.452 290.46 412.452 290.605 412.47L290.611 412.464ZM240.737 439.384L246.859 419.087H248.158L248.924 417.2H241.3L240.534 419.087H242.658C242.182 421.05 242.118 421.235 242.013 421.64L239.054 433.468L235.015 417.2H229.236L228.47 419.087H229.404L230.269 421.947L227.246 433.525L224.182 421.281C224.043 420.731 223.712 419.411 223.636 419.099H224.449L225.29 419.11V419.099H226.126V417.205H216.76L215.994 419.093H217.561L218.107 420.882L223.724 439.39C223.88 439.905 224.368 441.538 224.368 441.538H222.923L222.157 443.425H229.428L230.193 441.538H228.232C228.232 441.538 228.696 439.998 228.888 439.39L232.213 428.379L235.584 439.39C235.793 439.998 235.921 440.467 236.025 440.808C236.222 441.451 236.251 441.538 236.251 441.538H234.928L234.162 443.425H241.422L242.188 441.538H240.104L240.331 440.779C240.453 440.368 240.592 439.9 240.748 439.39L240.737 439.384ZM210.285 440.316C209.136 440.907 207.778 441.092 206.513 440.832C203.699 440.247 201.923 437.601 200.942 435.106L214.898 428.124C215.611 427.759 216.023 427.204 216.023 425.872C216.023 424.54 215.31 416.846 205.846 416.846C196.381 416.846 194.501 425.004 194.501 429.595C194.501 438.261 199.149 443.975 207.534 443.975C209.374 443.975 211.375 443.68 212.965 442.707C214.358 441.845 215.466 440.536 216.081 439.031C216.609 437.746 216.952 436.461 216.952 435.06C215.785 435.529 213.627 436.495 212.461 436.97C212.466 438.464 211.59 439.639 210.285 440.305V440.316ZM199.77 428.94C199.77 424.095 201.093 419.805 205.544 419.805C205.822 419.805 206.083 419.84 206.345 419.88C208.811 420.297 210.604 422.653 210.604 425.924C210.604 426.439 210.551 426.897 209.994 427.204L201.673 431.401L200.078 432.2C199.869 431.129 199.776 429.803 199.776 428.94H199.77ZM278.547 420.112C278.576 420.054 278.402 419.73 278.373 419.666C278.239 419.388 277.903 418.931 277.404 418.508C276.899 418.097 276.255 417.732 275.506 417.64C275.506 417.64 275.35 417.86 275.106 418.247C274.868 418.63 274.566 419.197 274.259 419.874C273.65 419.851 272.205 419.822 271.595 419.805L270.812 421.744H271.085C273.795 421.744 273.887 421.848 273.887 423.933V441.532C273.499 441.532 273 441.521 272.28 441.521L271.514 443.414H280.636L281.402 441.526H279.052V427.701C279.052 423.828 280.949 421.229 283.45 421.229C284.837 421.229 285.446 421.889 285.446 422.809C285.446 423.927 284.321 426.173 284.321 426.173L286.978 426.845L290.611 418.369C289.514 417.396 287.704 416.69 285.603 416.69C283.148 416.69 279.876 417.767 278.553 420.112H278.547ZM267.818 437.144V423.527C267.818 420.667 268.027 419.654 268.741 419.347L269.251 419.139L267.969 417.148L267.458 417.356C266.385 417.767 265.514 418.427 264.853 419.452C263.361 417.912 261.064 416.846 258.464 416.846C250.845 416.846 246.859 423.423 246.859 430.463C246.859 440.861 252.69 443.767 257.437 443.767C259.996 443.767 262.096 442.748 263.269 441.37C263.773 442.754 265.056 443.663 266.588 443.466L270.969 438.817C269.211 438.846 267.818 439.164 267.818 437.138V437.144ZM262.659 434.081C262.659 438.163 260.559 440.206 258.011 440.206C252.336 440.206 252.133 433.224 252.133 429.803C252.133 425.721 253.921 420.065 258.313 420.065C260.977 420.065 262.659 421.241 262.659 424.65V434.081Z" fill="white"/>
<path d="M280.427 458.408H280.009V456.167H279.342V455.785H281.094V456.167H280.427V458.408Z" fill="white"/>
<path d="M284.332 455.785L284.675 458.414H284.257L284.036 456.654L283.247 458.414H283.038L282.243 456.636L282.023 458.414H281.611L281.953 455.785H282.278L283.148 457.731L284.019 455.785H284.338H284.332Z" fill="white"/>
<path d="M211.393 450.1C211.973 450.1 212.478 450.21 212.913 450.425C213.343 450.639 213.679 450.934 213.911 451.31C214.149 451.687 214.265 452.115 214.265 452.59C214.265 453.064 214.149 453.493 213.911 453.869C213.673 454.245 213.343 454.546 212.913 454.761C212.484 454.975 211.973 455.079 211.393 455.079H210.099V458.281H208.805V450.095H211.393V450.1ZM211.381 453.875C211.869 453.875 212.246 453.753 212.524 453.516C212.797 453.279 212.936 452.966 212.936 452.584C212.936 452.202 212.797 451.889 212.524 451.646C212.252 451.403 211.869 451.281 211.381 451.281H210.099V453.863H211.381V453.875Z" fill="white"/>
<path d="M217.851 454.656V457.076H221.333V458.281H216.557V450.095H221.217V451.287H217.851V453.452H221.101V454.656H217.851Z" fill="white"/>
<path d="M228.76 458.281L226.103 455.079H225.255V458.281H223.961V450.095H226.549C227.13 450.095 227.635 450.205 228.07 450.419C228.499 450.633 228.836 450.928 229.068 451.304C229.306 451.681 229.422 452.109 229.422 452.584C229.422 453.151 229.259 453.643 228.934 454.06C228.609 454.477 228.163 454.766 227.588 454.929L230.379 458.275H228.766L228.76 458.281ZM225.25 451.293V453.875H226.532C227.019 453.875 227.397 453.753 227.675 453.516C227.948 453.279 228.087 452.966 228.087 452.584C228.087 452.202 227.948 451.889 227.675 451.646C227.402 451.403 227.019 451.281 226.532 451.281H225.25V451.293Z" fill="white"/>
<path d="M233.617 458.281H232.323V450.095H233.617V458.281Z" fill="white"/>
<path d="M237.946 454.656V457.076H241.427V458.281H236.652V450.095H241.311V451.287H237.946V453.452H241.195V454.656H237.946Z" fill="white"/>
<path d="M250.091 456.029V450.1H251.338V458.286H250.491L245.315 452.37V458.286H244.056V450.1H244.915L250.091 456.029Z" fill="white"/>
<path d="M255.975 457.858C255.325 457.487 254.808 456.984 254.419 456.341C254.037 455.699 253.845 454.981 253.845 454.193C253.845 453.406 254.037 452.688 254.419 452.04C254.802 451.391 255.319 450.888 255.975 450.523C256.625 450.158 257.338 449.973 258.104 449.973C259.027 449.973 259.839 450.228 260.535 450.731C261.232 451.241 261.731 451.924 262.038 452.787H260.686C260.443 452.289 260.094 451.895 259.648 451.6C259.201 451.304 258.684 451.16 258.11 451.16C257.57 451.16 257.077 451.293 256.625 451.565C256.178 451.831 255.824 452.196 255.563 452.659C255.301 453.122 255.174 453.632 255.174 454.193C255.174 454.755 255.301 455.264 255.563 455.722C255.824 456.179 256.172 456.544 256.625 456.81C257.071 457.076 257.565 457.21 258.11 457.21C258.696 457.21 259.218 457.065 259.671 456.77C260.124 456.474 260.472 456.086 260.71 455.594H262.062C261.754 456.457 261.255 457.146 260.553 457.65C259.857 458.159 259.038 458.408 258.104 458.408C257.332 458.408 256.625 458.223 255.975 457.852V457.858Z" fill="white"/>
<path d="M265.717 454.656V457.076H269.199V458.281H264.423V450.095H269.083V451.287H265.717V453.452H268.967V454.656H265.717Z" fill="white"/>
<path d="M272.704 458.09C272.263 457.875 271.915 457.574 271.677 457.181C271.433 456.793 271.305 456.341 271.299 455.838H272.617C272.634 456.26 272.779 456.596 273.058 456.856C273.336 457.111 273.731 457.244 274.241 457.244C274.706 457.244 275.065 457.146 275.332 456.937C275.593 456.735 275.727 456.457 275.727 456.11C275.727 455.837 275.651 455.618 275.495 455.444C275.344 455.27 275.152 455.131 274.926 455.027C274.7 454.923 274.381 454.801 273.974 454.668C273.441 454.489 273.011 454.321 272.692 454.159C272.373 453.996 272.094 453.759 271.862 453.441C271.63 453.122 271.514 452.7 271.514 452.179C271.514 451.756 271.63 451.38 271.862 451.044C272.094 450.708 272.414 450.448 272.826 450.257C273.238 450.066 273.702 449.973 274.218 449.973C274.706 449.973 275.152 450.071 275.553 450.268C275.959 450.465 276.284 450.749 276.528 451.108C276.771 451.467 276.905 451.889 276.911 452.364H275.605C275.588 452.005 275.454 451.71 275.199 451.484C274.944 451.252 274.607 451.137 274.183 451.137C273.789 451.137 273.47 451.229 273.22 451.414C272.971 451.6 272.843 451.86 272.843 452.196C272.843 452.451 272.918 452.671 273.069 452.839C273.22 453.007 273.406 453.145 273.638 453.25C273.87 453.354 274.183 453.464 274.572 453.591C275.106 453.771 275.535 453.944 275.86 454.106C276.185 454.269 276.464 454.518 276.702 454.842C276.94 455.172 277.056 455.6 277.056 456.127C277.056 456.555 276.94 456.943 276.702 457.291C276.464 457.638 276.139 457.91 275.715 458.107C275.292 458.304 274.804 458.402 274.259 458.402C273.673 458.402 273.156 458.298 272.709 458.084L272.704 458.09Z" fill="white"/>
<path d="M202.892 453.979L206.501 460H204.383L201.726 455.421L199.056 460H196.95L200.559 453.979L197.304 448.387H199.41L201.749 452.549L204.087 448.387H206.159L202.904 453.979H202.892Z" fill="white"/>
<path d="M202.706 337.44C202.695 337.33 202.538 337.359 202.538 337.243C202.538 337.104 202.701 336.867 202.817 336.711C202.625 336.786 202.48 336.965 202.376 337.22C202.376 337.145 202.347 337.11 202.283 337.128C202.027 337.515 202.3 337.834 202.347 338.118C202.544 337.857 202.73 337.654 202.706 337.44Z" fill="white"/>
<path d="M203.652 335.831C203.797 335.773 203.995 335.611 204.07 335.663C204.082 335.674 204.093 335.767 204.07 335.819C204.07 335.819 204.07 335.813 204.076 335.813C204.076 335.813 204.076 335.808 204.082 335.808C204.372 335.391 203.797 335.738 203.554 335.796C203.774 335.657 203.461 335.576 203.374 335.744C203.397 335.68 203.356 335.686 203.24 335.767C203.217 335.947 203.362 335.958 203.646 335.842L203.652 335.831Z" fill="white"/>
<path d="M211.37 334.858C211.358 334.789 211.364 334.812 211.37 334.858C211.283 334.418 210.07 335.072 210.012 335.431C209.896 336.155 211.492 335.489 211.37 334.864C211.387 334.945 211.416 335.09 211.37 334.864V334.858Z" fill="white"/>
<path d="M202.84 350.264C203.234 350.113 203.745 350.541 204.163 350.292C203.652 350.038 203.176 349.852 202.84 350.264Z" fill="white"/>
<path d="M200.995 336.693C200.832 337.064 200.867 336.74 200.995 336.693V336.693Z" fill="white"/>
<path d="M201.83 336.554C202.01 336.329 201.871 336.334 201.76 336.387C201.72 336.404 201.61 336.525 201.54 336.56C201.465 336.595 201.482 336.537 201.441 336.537C201.441 336.537 201.296 336.508 201.29 336.537C201.308 336.45 201.528 336.305 201.505 336.253C201.465 336.172 200.223 336.977 201 336.699C200.867 336.994 201.412 337.104 201.836 336.56L201.83 336.554Z" fill="white"/>
<path d="M203.35 349.21C203.362 349.245 203.548 349.546 203.577 349.563C203.652 349.615 204.035 349.685 203.878 349.447C203.89 349.465 203.89 349.47 203.878 349.447C203.751 349.25 203.844 349.395 203.878 349.447C203.687 349.164 203.153 348.666 203.35 349.21Z" fill="white"/>
<path d="M204.784 350.588C204.946 350.594 205.085 350.391 205.172 350.275C204.923 350.09 204.679 350.055 204.534 350.287C204.523 350.304 204.528 350.298 204.534 350.287C204.406 350.489 204.662 350.582 204.778 350.588H204.784Z" fill="white"/>
<path d="M204.586 350.206C204.586 350.206 204.557 350.258 204.54 350.275C204.569 350.229 204.581 350.211 204.586 350.206Z" fill="white"/>
<path d="M202.967 335.692C203.043 335.582 203.054 335.547 203.037 335.553C203.072 335.46 203.066 335.402 202.84 335.553C202.521 335.779 202.944 335.657 202.967 335.692Z" fill="white"/>
<path d="M216.464 347.959C216.528 347.925 216.586 347.89 216.65 347.861C216.795 347.792 216.946 347.739 217.097 347.705L218.24 347.433L219.389 345.927L214.828 343.525C214.677 343.965 214.439 344.393 214.445 344.891C214.463 345.649 214.764 346.541 215.246 347.12C215.577 347.519 216 347.768 216.464 347.954V347.959Z" fill="white"/>
<path d="M216.633 353.037C215.855 353.76 215.008 354.467 214.08 355.15C208.567 359.179 202.022 361.09 197.548 360.302C196.196 360.065 195.029 359.579 194.142 358.838C194.142 358.838 195.969 362.936 200.165 363.255C203.217 363.486 206.53 362.595 209.919 360.98C213.627 359.22 216.633 356.846 218.617 354.357L218.049 353.639L216.638 353.042L216.633 353.037Z" fill="white"/>
<path d="M218.17 353.17L217.016 352.678C216.894 352.799 216.76 352.915 216.633 353.037L218.043 353.633L218.611 354.351C218.693 354.247 218.785 354.142 218.867 354.038L218.17 353.164V353.17Z" fill="white"/>
<path d="M212.577 362.016C212.252 362.016 211.927 362.004 211.608 361.981C211.283 362.149 210.964 362.323 210.633 362.479C209.385 363.069 208.178 363.556 207 363.932C208.759 364.488 210.633 364.789 212.577 364.789C219.842 364.789 226.114 360.603 229.137 354.524L227.077 352.325C224.716 357.998 219.116 362.01 212.577 362.01V362.016Z" fill="white"/>
<path d="M216.795 332.641C216.795 332.513 216.998 332.189 216.9 332.102C216.708 331.94 216.575 332.155 216.511 332.265C216.435 332.386 216.464 332.618 216.412 332.762C216.302 333.058 216.203 333.104 216.372 333.364C216.534 333.625 216.836 333.631 216.871 334.019C216.888 334.233 216.818 334.464 216.737 334.684C216.737 334.684 216.737 334.696 216.731 334.702C216.731 334.719 216.72 334.737 216.714 334.754C216.696 334.794 216.679 334.841 216.667 334.876C216.406 335.541 217.329 334.916 217.515 334.667C217.758 334.349 217.625 334.244 217.573 333.938C217.52 333.619 217.59 333.434 217.77 333.139C217.201 333.26 216.801 333.104 216.801 332.635L216.795 332.641Z" fill="white"/>
<path d="M202.706 337.44C202.695 337.33 202.538 337.359 202.538 337.243C202.538 337.104 202.701 336.867 202.817 336.711C202.625 336.786 202.48 336.965 202.376 337.22C202.376 337.145 202.347 337.11 202.283 337.128C202.027 337.515 202.3 337.834 202.347 338.118C202.544 337.857 202.73 337.654 202.706 337.44Z" fill="white"/>
<path d="M203.652 335.831C203.797 335.773 203.994 335.611 204.07 335.663C204.082 335.674 204.093 335.767 204.07 335.819C204.07 335.819 204.07 335.813 204.076 335.813C204.076 335.813 204.076 335.808 204.082 335.808C204.372 335.391 203.797 335.738 203.553 335.796C203.774 335.657 203.461 335.576 203.374 335.744C203.397 335.68 203.356 335.686 203.24 335.767C203.217 335.947 203.362 335.958 203.646 335.842L203.652 335.831Z" fill="white"/>
<path d="M212.577 327.894C208.416 327.894 204.575 329.266 201.488 331.581C199.381 333.145 197.652 335.136 196.387 337.434C196.358 337.481 196.329 337.533 196.306 337.579C196.225 337.73 196.149 337.88 196.074 338.031C196.004 338.164 195.935 338.297 195.871 338.436C195.83 338.517 195.795 338.604 195.755 338.685C195.662 338.888 195.569 339.096 195.482 339.299C195.465 339.333 195.453 339.374 195.436 339.409C195.337 339.657 195.238 339.906 195.145 340.161C195.145 340.167 195.145 340.173 195.14 340.179C195.134 340.202 195.128 340.225 195.116 340.248C195.029 340.497 194.942 340.752 194.867 341.006C194.844 341.093 194.82 341.18 194.791 341.261C194.739 341.452 194.681 341.643 194.635 341.834C194.583 342.031 194.542 342.234 194.496 342.436C194.478 342.512 194.461 342.587 194.443 342.662C193.846 345.545 193.962 348.504 194.762 351.335C194.786 351.421 194.809 351.508 194.832 351.595C194.873 351.728 194.919 351.867 194.96 352C195.012 352.168 195.07 352.336 195.128 352.498C195.157 352.573 195.186 352.654 195.215 352.73C195.296 352.95 195.383 353.164 195.47 353.384C195.488 353.424 195.505 353.471 195.523 353.511C195.627 353.754 195.732 353.992 195.842 354.229C195.848 354.247 195.853 354.264 195.865 354.276C195.865 354.287 195.877 354.293 195.882 354.304C196.097 354.756 196.335 355.196 196.585 355.624C196.614 355.671 196.637 355.717 196.666 355.758C196.904 356.151 197.147 356.539 197.414 356.915C197.437 356.944 197.455 356.979 197.472 357.008C197.484 357.02 197.496 357.037 197.507 357.049C197.937 357.651 198.401 358.23 198.9 358.78C199.143 358.797 199.387 358.809 199.648 358.809C200.6 358.809 201.61 358.699 202.66 358.496C199.12 355.619 196.857 351.242 196.857 346.344C196.857 345.29 196.962 344.266 197.159 343.276C197.281 343.617 197.408 343.999 197.536 344.422C197.722 345.042 197.896 345.707 197.983 346.338C198.07 346.958 198.122 347.543 198.349 348.133C198.552 348.666 198.807 348.978 199.062 349.436C199.201 349.685 199.323 349.986 199.468 350.24C199.544 350.374 199.637 350.478 199.712 350.605C199.938 350.981 200.165 351.427 200.159 350.842C200.432 351.051 200.681 351.595 200.989 351.867C201.285 352.128 201.581 352.18 201.882 352.203C202.23 352.232 202.602 352.22 203.043 352.469C203.403 352.678 203.936 353.251 204.331 353.204C204.72 353.164 204.697 352.637 205.143 353.361C205.555 354.021 205.254 354.553 205.7 355.167C206.095 355.717 206.878 356.047 207.459 356.406C207.644 356.522 207.83 356.643 208.033 356.724C208.178 356.661 208.323 356.591 208.474 356.522C210.081 355.758 211.625 354.837 213.064 353.783C213.366 353.563 213.656 353.343 213.94 353.112C213.83 352.689 213.528 352.492 213 352.487C212.345 352.475 211.741 352.707 211.103 352.707C210.807 352.707 210.511 352.695 210.227 352.562C209.925 352.423 209.745 352.133 209.455 352C209.17 351.867 208.962 351.954 208.695 351.971C208.329 352 208.3 351.96 207.894 351.827C207.261 351.612 206.664 351.676 206.112 351.717C205.857 351.734 205.445 351.699 205.259 351.821C205.051 351.96 205.097 352.243 204.969 352.44C204.853 352.62 204.656 352.683 204.482 352.759C204.227 352.863 204.203 352.996 203.931 352.782C203.414 352.377 203.675 351.856 203.072 351.78C202.892 351.757 202.88 351.873 202.724 351.653C202.555 351.427 202.695 351.12 202.584 350.918C202.172 350.188 202.184 351.41 202.097 351.514C201.842 351.832 201.395 351.219 201.215 350.802C201.006 350.321 200.902 349.725 201.076 349.36C201.209 349.059 201.935 348.411 202.341 348.643C202.434 348.7 203.176 350.072 203.008 349.123C202.956 348.839 202.724 348.573 202.677 348.26C202.637 347.983 202.666 347.739 202.753 347.502C202.886 347.149 203.054 346.969 203.095 346.529C203.124 346.223 203.083 345.898 203.165 345.592C203.252 345.279 203.437 345.169 203.559 344.903C203.687 344.619 203.571 344.231 203.861 344.005C204.116 343.808 204.319 344.028 204.534 343.669C204.801 343.235 204.534 343.322 204.43 343.004C204.302 342.627 204.406 342.714 204.575 342.46C204.575 342.46 205.016 341.973 204.818 341.95C204.94 341.771 205.184 341.412 205.352 341.284C205.341 341.47 205.161 342.037 205.207 342.176C205.283 342.413 205.938 342.373 206.043 342.101C206.136 341.857 205.631 341.551 205.579 341.29C205.515 340.96 205.555 340.833 205.37 340.63C205.085 340.323 204.871 340.155 204.702 339.744C204.668 339.669 204.575 339.281 204.499 339.287C204.348 339.293 204.302 339.559 204.209 339.652C203.571 340.289 203.878 338.563 203.118 339.223C202.509 339.71 202.88 340.671 202.683 341.244C202.59 341.487 202.439 341.678 202.381 341.944C202.347 342.095 202.393 342.384 202.271 342.477C202.109 342.593 202.045 341.881 201.877 341.765C201.372 341.406 200.478 341.603 201.087 340.317C201.319 339.843 201.552 339.513 201.911 339.397C202.178 339.31 202.323 339.293 202.474 338.934C202.521 338.824 202.503 338.662 202.555 338.54C202.631 338.355 202.817 338.135 202.915 337.921C203.089 337.539 203.043 337.261 203.466 337.162C203.745 337.099 203.942 337.33 203.803 337.712C203.67 338.083 203.06 338.401 203.089 338.714C203.507 338.476 203.472 338.668 203.733 338.824C204.006 338.986 204.557 338.731 204.546 338.187C204.546 338.065 204.314 337.915 204.395 337.782C204.505 337.602 204.598 337.782 204.691 337.735C204.813 337.672 205.039 337.521 205.068 337.307C205.091 337.116 204.83 337.133 204.749 337.047C204.528 336.803 204.784 336.468 204.412 336.427C204.163 336.404 203.977 336.387 203.989 336.132C204 335.848 204.203 335.738 204.464 335.402C204.76 335.032 204.888 334.887 205.352 334.563C205.544 334.43 205.996 334.129 205.776 334.36C205.741 334.401 205.613 334.464 205.555 334.517C205.428 334.632 205.312 334.818 205.312 334.899C205.323 335.096 205.625 334.899 205.869 334.847C206.252 334.771 206.182 335.084 206.234 335.379C206.234 335.414 206.188 335.495 206.205 335.524C206.217 335.547 206.356 335.588 206.356 335.593C206.374 335.738 206.281 335.663 206.223 335.86C206.17 336.033 206.06 335.964 206.153 336.074C206.281 336.224 206.385 335.871 206.368 336.207C206.368 336.317 206.188 336.607 206.159 336.745C206.118 336.942 206.118 337.133 206.159 337.307C206.229 337.643 206.449 337.938 206.791 338.042C207.534 338.262 207.47 337.295 207.749 336.763C207.94 336.392 208.41 335.958 208.706 335.593C209.06 335.165 209.542 334.922 209.884 334.522C210.203 334.146 210.302 333.758 210.377 333.434C210.377 333.434 210.377 333.434 210.377 333.428C210.377 333.405 210.389 333.388 210.389 333.359C210.598 333.133 210.604 333 210.61 332.838C210.615 332.618 210.435 332.513 210.563 332.299C210.639 332.166 211.225 331.761 211.155 331.738C211.085 331.703 210.807 331.9 210.673 331.958C210.493 332.039 210.412 332.05 210.296 332.073C210.006 332.126 209.931 332.137 209.449 332.369C209.275 332.45 209.17 332.508 208.991 332.6C208.898 332.647 208.509 332.826 208.468 332.849C208.37 332.907 208.346 332.971 208.294 333.006C208.161 333.087 207.94 333.15 207.83 333.202C207.511 333.341 207.116 333.538 206.78 333.712C206.948 333.602 206.559 333.729 206.559 333.729C206.321 333.81 206.031 333.949 205.718 334.094C205.434 334.227 205.103 334.354 204.778 334.522C204.65 334.586 204.592 334.615 204.575 334.627C204.569 334.632 204.534 334.656 204.453 334.713C204.395 334.754 204.406 334.8 204.36 334.835C204.18 334.887 204.36 334.708 204.006 334.922C203.606 335.148 203.524 335.443 203.461 335.617C203.345 335.674 203.24 335.651 203.072 335.79C202.875 335.952 202.904 336.033 202.869 336.155C202.834 336.271 202.741 336.41 202.834 336.444C202.898 336.473 203.049 336.369 203.124 336.369C203.002 336.444 202.776 336.601 202.666 336.682C202.457 336.832 202.48 336.867 202.323 337.012C201.772 337.539 202.138 336.902 202.254 336.664C201.685 337 201.964 337.029 201.911 337.313C202.016 337.295 201.998 337.348 201.877 337.475C201.778 337.573 201.749 337.649 201.772 337.712C201.731 337.84 201.865 338.1 201.639 338.297C201.482 338.43 201.511 338.268 201.43 338.309C201.099 338.494 200.832 338.928 200.693 338.552C200.902 338.442 201.192 338.054 201.36 338.054C201.29 337.892 201.267 337.307 201.134 337.307C201.012 337.301 200.82 337.486 200.71 337.411C200.646 337.365 200.664 337.266 200.583 337.243C200.554 337.238 200.53 337.232 200.501 337.232C200.35 337.226 200.171 337.319 199.95 337.556C199.788 337.724 199.381 338.256 199.544 338.32C199.631 338.355 199.793 338.146 199.886 338.112C199.921 338.1 199.95 338.112 199.962 338.175C199.962 338.204 199.846 338.598 199.811 338.656C199.706 338.812 199.579 338.83 199.463 338.806C199.341 338.783 199.219 338.725 199.132 338.737C199.01 338.754 198.9 338.812 198.79 338.876C201.453 333.99 206.646 330.661 212.6 330.661C213.847 330.661 215.054 330.811 216.215 331.084C215.977 331.205 215.751 331.356 215.553 331.535C215.524 331.564 215.495 331.587 215.466 331.616C215.008 332.062 215.24 332.403 215.054 332.936C214.857 333.515 214.155 334.152 214.729 334.684C215.031 334.962 215.664 335.136 215.71 335.663C215.756 336.172 215.147 336.531 214.985 337.012C214.811 336.67 214.561 336.554 214.265 336.358C213.998 336.184 213.923 335.964 213.714 335.79C213.551 335.657 213.302 335.507 213.076 335.79C212.867 336.051 213.163 336.12 213.128 336.346C213.087 336.659 212.414 337.151 212.727 337.556C213.122 338.065 213.354 337.104 213.731 337.394C213.975 337.533 213.72 337.718 214.079 337.701C214.196 337.695 214.422 337.515 214.532 337.463C214.532 337.631 214.248 337.973 214.271 338.071C214.3 338.181 214.468 338.216 214.642 338.251L214.816 338.135C215.049 337.973 215.286 337.834 215.536 337.718C216.128 337.434 216.766 337.29 217.37 337.29C217.445 337.29 217.526 337.295 217.602 337.307L218.49 337.434L218.675 337.191C218.902 336.896 219.192 336.659 219.522 336.502C220.259 336.149 221.107 336.23 221.733 336.711L222.163 337.041C222.197 337.064 222.232 337.093 222.261 337.122C222.383 337.029 222.517 336.954 222.65 336.884C223.387 336.531 224.234 336.612 224.867 337.093L225.296 337.423C225.424 337.521 225.54 337.631 225.638 337.753L225.685 337.706C225.685 337.706 225.691 337.718 225.696 337.724L227.466 335.408C224.101 330.846 218.693 327.882 212.577 327.882V327.894ZM203.379 335.738C203.472 335.57 203.786 335.651 203.559 335.79C203.803 335.738 204.377 335.391 204.087 335.802C204.087 335.802 204.087 335.802 204.082 335.808C204.082 335.808 204.082 335.808 204.076 335.813C204.093 335.761 204.082 335.663 204.076 335.657C204.006 335.605 203.803 335.767 203.658 335.825C203.374 335.941 203.234 335.929 203.252 335.75C203.368 335.669 203.408 335.657 203.385 335.727L203.379 335.738ZM202.283 337.128C202.347 337.116 202.381 337.145 202.376 337.22C202.48 336.96 202.625 336.786 202.817 336.711C202.7 336.867 202.538 337.104 202.538 337.243C202.538 337.359 202.695 337.33 202.706 337.44C202.73 337.654 202.544 337.857 202.347 338.118C202.3 337.834 202.027 337.515 202.283 337.128ZM217.561 333.943C217.613 334.25 217.747 334.354 217.503 334.673C217.317 334.922 216.401 335.547 216.656 334.881C216.673 334.841 216.685 334.8 216.702 334.76C216.708 334.737 216.714 334.719 216.72 334.708C216.72 334.702 216.72 334.696 216.726 334.69C216.807 334.464 216.882 334.239 216.859 334.024C216.824 333.642 216.522 333.631 216.36 333.37C216.192 333.104 216.29 333.063 216.401 332.768C216.459 332.623 216.424 332.392 216.499 332.27C216.569 332.16 216.702 331.952 216.888 332.108C216.987 332.195 216.784 332.519 216.784 332.647C216.784 333.116 217.184 333.266 217.753 333.15C217.567 333.446 217.497 333.631 217.555 333.949L217.561 333.943Z" fill="white"/>
<path d="M233.611 333.457C233.594 333.428 233.565 333.399 233.542 333.382C233.513 333.359 233.484 333.341 233.449 333.336C232.399 333.023 230.501 334.204 229.619 335.35L225.894 340.225L223.932 339.947L224.286 339.484C224.466 339.246 224.455 338.934 224.263 338.783L223.834 338.453C223.637 338.303 223.329 338.378 223.149 338.615L222.314 339.71L220.851 339.501L221.159 339.102C221.339 338.864 221.327 338.552 221.136 338.401L220.706 338.071C220.509 337.921 220.201 337.996 220.021 338.233L219.232 339.27L217.358 339.003C216.842 339.003 216.285 339.194 215.774 339.553L214.422 340.462C214.045 340.833 214.097 341.406 214.509 341.452L221.965 345.377L219.372 348.764C219.279 348.88 219.157 348.967 219.023 348.996L217.497 349.355C217.433 349.372 217.375 349.395 217.317 349.43L216.244 350.125C215.913 350.339 215.838 350.802 216.099 350.999L219.076 352.261L219.11 352.284L221.118 354.814C221.379 355.017 221.809 354.814 221.931 354.443L222.319 353.228C222.343 353.164 222.348 353.1 222.348 353.037L222.296 351.474C222.296 351.34 222.337 351.196 222.43 351.08L225.023 347.693L230.785 353.836C230.942 354.223 231.505 354.119 231.766 353.656L232.288 352.116C232.503 351.531 232.538 350.947 232.399 350.449L231.644 348.718L232.433 347.682C232.613 347.444 232.602 347.132 232.41 346.981L231.981 346.651C231.783 346.5 231.476 346.576 231.296 346.813L230.988 347.213L230.402 345.858L231.238 344.764C231.418 344.526 231.406 344.214 231.215 344.063L230.785 343.733C230.588 343.583 230.281 343.658 230.101 343.895L229.747 344.358L228.958 342.546L232.683 337.672C233.565 336.52 234.203 334.383 233.623 333.457H233.611Z" fill="white"/>
<path d="M76.5915 361.506V331.182H85.5333C88.9511 331.182 91.9221 331.807 94.4578 333.064C96.9878 334.32 98.9433 336.097 100.319 338.39C101.694 340.688 102.378 343.334 102.378 346.338C102.378 349.343 101.688 351.989 100.319 354.287C98.9433 356.585 96.9878 358.357 94.4578 359.613C91.9221 360.87 88.9511 361.495 85.5333 361.495H76.5915V361.506ZM85.5392 357.049C87.9995 357.049 90.129 356.609 91.9221 355.729C93.7151 354.849 95.0903 353.598 96.0478 351.983C97.0052 350.368 97.481 348.486 97.481 346.35C97.481 344.214 97.0052 342.338 96.0478 340.717C95.0903 339.102 93.7151 337.845 91.9221 336.948C90.129 336.051 87.9995 335.605 85.5392 335.605H81.3728V357.049H85.5392Z" fill="white"/>
<path d="M116.624 361.506H111.848V331.182H116.624V361.506Z" fill="white"/>
<path d="M131.061 360.794C129.425 360.001 128.16 358.884 127.26 357.436C126.361 355.995 125.897 354.333 125.873 352.458H130.736C130.794 354.015 131.334 355.271 132.367 356.227C133.394 357.182 134.85 357.656 136.73 357.656C138.436 357.656 139.777 357.28 140.746 356.528C141.715 355.775 142.202 354.75 142.202 353.453C142.202 352.44 141.918 351.618 141.355 350.987C140.792 350.35 140.09 349.841 139.248 349.447C138.407 349.059 137.235 348.619 135.732 348.127C133.765 347.462 132.187 346.836 130.997 346.24C129.808 345.649 128.792 344.758 127.933 343.577C127.08 342.396 126.651 340.833 126.651 338.899C126.651 337.342 127.08 335.941 127.933 334.696C128.786 333.457 129.976 332.479 131.496 331.772C133.016 331.066 134.728 330.713 136.643 330.713C138.436 330.713 140.078 331.084 141.57 331.819C143.061 332.554 144.262 333.596 145.173 334.939C146.084 336.282 146.554 337.834 146.583 339.594H141.761C141.703 338.268 141.204 337.174 140.264 336.323C139.324 335.472 138.071 335.043 136.51 335.043C135.059 335.043 133.875 335.391 132.947 336.085C132.018 336.78 131.56 337.747 131.56 338.986C131.56 339.941 131.833 340.734 132.384 341.371C132.935 342.008 133.637 342.512 134.49 342.888C135.343 343.264 136.492 343.681 137.943 344.144C139.91 344.81 141.494 345.447 142.695 346.049C143.896 346.657 144.929 347.566 145.8 348.776C146.67 349.986 147.099 351.578 147.099 353.54C147.099 355.127 146.664 356.568 145.8 357.853C144.929 359.139 143.717 360.152 142.15 360.887C140.583 361.622 138.79 361.993 136.765 361.993C134.595 361.993 132.691 361.593 131.055 360.8L131.061 360.794Z" fill="white"/>
<path d="M162.256 359.926C159.854 358.554 157.945 356.678 156.523 354.293C155.107 351.908 154.393 349.262 154.393 346.344C154.393 343.426 155.101 340.769 156.523 338.372C157.939 335.976 159.854 334.1 162.256 332.739C164.658 331.385 167.275 330.701 170.113 330.701C173.531 330.701 176.519 331.639 179.078 333.515C181.643 335.391 183.488 337.932 184.614 341.14H179.623C178.724 339.293 177.447 337.828 175.782 336.745C174.117 335.663 172.231 335.119 170.113 335.119C168.117 335.119 166.295 335.617 164.641 336.612C162.993 337.608 161.687 338.957 160.736 340.665C159.778 342.367 159.302 344.26 159.302 346.338C159.302 348.417 159.778 350.31 160.736 352.012C161.693 353.714 162.993 355.057 164.641 356.041C166.289 357.025 168.117 357.512 170.113 357.512C172.283 357.512 174.204 356.968 175.863 355.885C177.529 354.802 178.811 353.349 179.705 351.531H184.701C183.569 354.739 181.718 357.28 179.142 359.156C176.565 361.032 173.554 361.97 170.113 361.97C167.275 361.97 164.658 361.286 162.256 359.914V359.926Z" fill="white"/>
<path d="M255.551 353.534L263.408 331.182H268.485L257.367 361.506H253.63L242.513 331.182H247.677L255.534 353.534H255.551Z" fill="white"/>
<path d="M281.257 348.081V357.049H294.11V361.512H276.481V331.188H293.675V335.605H281.257V343.617H293.239V348.081H281.257Z" fill="white"/>
<path d="M321.504 361.506L311.692 349.638H308.564V361.506H303.789V331.182H313.34C315.481 331.182 317.349 331.581 318.939 332.375C320.529 333.168 321.759 334.268 322.63 335.669C323.5 337.07 323.93 338.65 323.93 340.41C323.93 342.517 323.326 344.347 322.125 345.887C320.924 347.433 319.264 348.509 317.152 349.117L327.44 361.506H321.492H321.504ZM308.564 335.605V345.181H313.299C315.092 345.181 316.496 344.741 317.512 343.861C318.527 342.981 319.032 341.834 319.032 340.416C319.032 338.998 318.527 337.845 317.512 336.948C316.496 336.051 315.092 335.605 313.299 335.605H308.564Z" fill="white"/>
<path d="M339.434 361.506H334.659V331.182H339.434V361.506Z" fill="white"/>
<path d="M355.415 348.081V357.049H368.268V361.512H350.639V331.188H367.832V335.605H355.415V343.617H367.397V348.081H355.415Z" fill="white"/>
<path d="M381.184 360.794C379.548 360.001 378.283 358.884 377.384 357.436C376.484 355.995 376.02 354.333 375.997 352.458H380.859C380.917 354.015 381.457 355.271 382.49 356.227C383.517 357.182 384.973 357.656 386.853 357.656C388.559 357.656 389.9 357.28 390.869 356.528C391.838 355.775 392.325 354.75 392.325 353.453C392.325 352.44 392.041 351.618 391.478 350.987C390.915 350.35 390.213 349.841 389.372 349.447C388.53 349.059 387.358 348.619 385.855 348.127C383.888 347.462 382.31 346.836 381.12 346.24C379.931 345.649 378.915 344.758 378.057 343.577C377.204 342.396 376.774 340.833 376.774 338.899C376.774 337.342 377.204 335.941 378.057 334.696C378.91 333.457 380.099 332.479 381.619 331.772C383.14 331.066 384.857 330.713 386.766 330.713C388.559 330.713 390.202 331.084 391.693 331.819C393.184 332.554 394.385 333.596 395.296 334.939C396.207 336.282 396.677 337.834 396.706 339.594H391.884C391.826 338.268 391.327 337.174 390.387 336.323C389.447 335.472 388.194 335.043 386.633 335.043C385.182 335.043 383.999 335.391 383.07 336.085C382.142 336.78 381.683 337.747 381.683 338.986C381.683 339.941 381.956 340.734 382.507 341.371C383.059 342.008 383.761 342.512 384.614 342.888C385.467 343.264 386.616 343.681 388.066 344.144C390.033 344.81 391.617 345.447 392.819 346.049C394.02 346.657 395.053 347.566 395.923 348.776C396.793 349.986 397.223 351.578 397.223 353.54C397.223 355.127 396.788 356.568 395.923 357.853C395.053 359.139 393.84 360.152 392.273 360.887C390.712 361.622 388.913 361.993 386.888 361.993C384.718 361.993 382.815 361.593 381.178 360.8L381.184 360.794Z" fill="white"/>
<path d="M217.062 388.577H76.5915" stroke="white" stroke-width="2" stroke-miterlimit="10"/>
<path d="M397.229 388.577H255.017" stroke="white" stroke-width="2" stroke-miterlimit="10"/>
<path d="M233.843 390.534C234.342 391.194 234.592 391.97 234.592 392.873C234.592 393.776 234.371 394.529 233.936 395.223C233.501 395.918 232.863 396.462 232.027 396.85C231.192 397.244 230.205 397.435 229.062 397.435H224.223V381.925H228.772C230.379 381.925 231.638 382.302 232.555 383.054C233.472 383.807 233.925 384.803 233.925 386.047C233.925 386.713 233.733 387.321 233.356 387.877C232.979 388.432 232.474 388.849 231.853 389.127C232.689 389.411 233.35 389.88 233.849 390.534H233.843ZM226.671 384.079V388.357H228.766C229.596 388.357 230.251 388.16 230.716 387.761C231.186 387.361 231.418 386.846 231.418 386.209C231.418 385.573 231.18 385.08 230.704 384.681C230.228 384.282 229.578 384.085 228.766 384.085H226.671V384.079ZM229.103 395.264C230.008 395.264 230.733 395.032 231.267 394.563C231.801 394.1 232.068 393.521 232.068 392.827C232.068 392.132 231.801 391.553 231.267 391.09C230.733 390.627 230.008 390.389 229.103 390.389H226.671V395.264H229.103Z" fill="white"/>
<path d="M243.313 388.461L246.812 381.925H249.557L244.491 390.922V397.435H242.037V390.922L236.994 381.925H239.779L243.302 388.461H243.313Z" fill="white"/>
</g>
<defs>
<clipPath id="clip0_496_14">
<rect width="406" height="250" fill="white" transform="translate(34 210)"/>
</clipPath>
</defs>
</svg>
